<svg width="51" height="40" viewBox="0 0 51 40" fill="none" xmlns="http://www.w3.org/2000/svg">
<path d="M50.1211 33.3365C50.1211 34.9745 49.4704 36.5453 48.3123 37.7035C47.1541 38.8616 45.5833 39.5123 43.9454 39.5123H6.89093C5.25302 39.5123 3.6822 38.8616 2.52402 37.7035C1.36584 36.5453 0.715191 34.9745 0.715191 33.3365V16.3533H50.1211V33.3365ZM42.8425 24.9552C42.8425 24.0777 42.494 23.2362 41.8735 22.6158C41.2531 21.9953 40.4116 21.6468 39.5341 21.6468H34.2406C33.3632 21.6468 32.5217 21.9953 31.9012 22.6158C31.2808 23.2362 30.9322 24.0777 30.9322 24.9552V27.1608C30.9322 28.0383 31.2808 28.8798 31.9012 29.5002C32.5217 30.1207 33.3632 30.4692 34.2406 30.4692H39.5341C40.4116 30.4692 41.2531 30.1207 41.8735 29.5002C42.494 28.8798 42.8425 28.0383 42.8425 27.1608V24.9552ZM6.89093 0.693359H43.9454C45.5833 0.693359 47.1541 1.34402 48.3123 2.50219C49.4704 3.66037 50.1211 5.23119 50.1211 6.8691V9.7364H0.715191V6.8691C0.715191 5.23119 1.36584 3.66037 2.52402 2.50219C3.6822 1.34402 5.25302 0.693359 6.89093 0.693359Z" fill="#002855"/>
</svg>
