<svg width="100" height="102" viewBox="0 0 100 102" fill="none" xmlns="http://www.w3.org/2000/svg">
<path d="M76.2485 21.8014L61.1483 0.630615L5.6255 44.9861L2.5475 44.9529V45.0004H0.125V102H99.875V45.0004H95.3055L86.214 18.4051L76.2485 21.8014ZM85.2687 45.0004H37.6357L73.1135 32.9069L80.343 30.5936L85.2687 45.0004ZM66.8625 25.0029L30.24 37.4859L59.2435 14.3154L66.8625 25.0029ZM9.625 83.8031V63.1881C11.6303 62.4804 13.4518 61.3328 14.956 59.8295C16.4601 58.3262 17.6087 56.5053 18.3175 54.5004H81.6825C82.3907 56.5062 83.5391 58.328 85.0432 59.8322C86.5474 61.3363 88.3692 62.4846 90.375 63.1929V83.8079C88.3692 84.5161 86.5474 85.6644 85.0432 87.1686C83.5391 88.6727 82.3907 90.4945 81.6825 92.5004H18.327C17.6154 90.4943 16.4648 88.6725 14.9593 87.1679C13.4539 85.6632 11.6314 84.5136 9.625 83.8031Z" fill="#2C3A6B"/>
</svg>
