<svg width="15" height="26" viewBox="0 0 15 26" fill="none" xmlns="http://www.w3.org/2000/svg">
<path d="M14.1587 0.486601C13.5054 -0.166731 12.452 -0.166731 11.7987 0.486601L0.718712 11.5666C0.595107 11.69 0.497044 11.8365 0.430135 11.9978C0.363226 12.1591 0.328786 12.332 0.328786 12.5066C0.328786 12.6812 0.363226 12.8541 0.430135 13.0154C0.497044 13.1767 0.595107 13.3233 0.718712 13.4466L11.7987 24.5266C12.452 25.1799 13.5054 25.1799 14.1587 24.5266C14.812 23.8733 14.812 22.8199 14.1587 22.1666L4.50538 12.4999L14.172 2.83327C14.812 2.19327 14.812 1.1266 14.1587 0.486601Z" fill="#2C3A6B"/>
</svg>
