<svg width="30" height="30" viewBox="0 0 30 30" fill="none" xmlns="http://www.w3.org/2000/svg">
<g clip-path="url(#clip0_815_14754)">
<path d="M25.7959 15.1758C26.4111 15.3418 26.9727 15.5957 27.4805 15.9375C27.9883 16.2793 28.4326 16.6943 28.8135 17.1826C29.1943 17.6709 29.4873 18.2031 29.6924 18.7793C29.8975 19.3555 30 19.9707 30 20.625C30 21.3086 29.8828 21.958 29.6484 22.5732C29.4141 23.1885 29.0869 23.7451 28.667 24.2432C28.2471 24.7412 27.7539 25.1562 27.1875 25.4883C26.6211 25.8203 25.9961 26.0498 25.3125 26.1768V24.2578C25.7227 24.1504 26.0986 23.9844 26.4404 23.7598C26.7822 23.5352 27.0801 23.2568 27.334 22.9248C27.5879 22.5928 27.7832 22.2363 27.9199 21.8555C28.0566 21.4746 28.125 21.0645 28.125 20.625C28.125 20.0879 28.0273 19.5947 27.832 19.1455C27.6367 18.6963 27.3584 18.3008 26.9971 17.959C26.6357 17.6172 26.2305 17.3535 25.7812 17.168C25.332 16.9824 24.834 16.8848 24.2871 16.875C24.1699 16.0742 23.9209 15.332 23.54 14.6484C23.1592 13.9648 22.6807 13.3691 22.1045 12.8613C21.5283 12.3535 20.874 11.958 20.1416 11.6748C19.4092 11.3916 18.6328 11.25 17.8125 11.25C17.0605 11.25 16.3477 11.3721 15.6738 11.6162C15 11.8604 14.3799 12.1973 13.8135 12.627C13.2471 13.0566 12.7686 13.5742 12.3779 14.1797C11.9873 14.7852 11.6895 15.4443 11.4844 16.1572C11.0547 15.7861 10.5811 15.5029 10.0635 15.3076C9.5459 15.1123 9.00391 15.0098 8.4375 15C7.79297 15 7.1875 15.1221 6.62109 15.3662C6.05469 15.6104 5.55664 15.9424 5.12695 16.3623C4.69727 16.7822 4.36035 17.2803 4.11621 17.8564C3.87207 18.4326 3.75 19.043 3.75 19.6875C3.75 20.1562 3.81348 20.6055 3.94043 21.0352C4.06738 21.4648 4.25781 21.8701 4.51172 22.251C4.76562 22.6318 5.06348 22.9639 5.40527 23.2471C5.74707 23.5303 6.13281 23.7744 6.5625 23.9795V25.9717C5.86914 25.7666 5.23438 25.459 4.6582 25.0488C4.08203 24.6387 3.58887 24.1602 3.17871 23.6133C2.76855 23.0664 2.45117 22.4561 2.22656 21.7822C2.00195 21.1084 1.88477 20.4102 1.875 19.6875C1.875 19.0332 1.96777 18.4033 2.15332 17.7979C2.33887 17.1924 2.60254 16.626 2.94434 16.0986C3.28613 15.5713 3.69629 15.1025 4.1748 14.6924C4.65332 14.2822 5.19531 13.9453 5.80078 13.6816C5.68359 13.2031 5.625 12.7051 5.625 12.1875C5.625 11.2793 5.7959 10.4297 6.1377 9.63867C6.47949 8.84766 6.94824 8.14941 7.54395 7.54395C8.13965 6.93848 8.83301 6.46973 9.62402 6.1377C10.415 5.80566 11.2695 5.63477 12.1875 5.625C12.8125 5.625 13.4229 5.71289 14.0186 5.88867C14.6143 6.06445 15.166 6.31348 15.6738 6.63574C16.1816 6.95801 16.6455 7.35352 17.0654 7.82227C17.4854 8.29102 17.8271 8.80859 18.0908 9.375C18.9697 9.4043 19.8096 9.56543 20.6104 9.8584C21.4111 10.1514 22.1533 10.5566 22.8369 11.0742C23.5205 11.5918 24.1162 12.1924 24.624 12.876C25.1318 13.5596 25.5225 14.3262 25.7959 15.1758ZM10.5908 13.4912C11.1865 12.4854 11.958 11.6406 12.9053 10.957C13.8525 10.2734 14.8975 9.80957 16.04 9.56543C15.6104 8.9209 15.0537 8.41797 14.3701 8.05664C13.6865 7.69531 12.959 7.50977 12.1875 7.5C11.543 7.5 10.9375 7.62207 10.3711 7.86621C9.80469 8.11035 9.30664 8.44727 8.87695 8.87695C8.44727 9.30664 8.11035 9.80469 7.86621 10.3711C7.62207 10.9375 7.5 11.543 7.5 12.1875C7.5 12.3535 7.50488 12.5146 7.51465 12.6709C7.52441 12.8271 7.55859 12.9932 7.61719 13.1689C7.89062 13.1396 8.16406 13.125 8.4375 13.125C9.16016 13.125 9.87793 13.2471 10.5908 13.4912ZM3.75 13.125H0V11.25H3.75V13.125ZM5.55176 6.88477L2.90039 4.2334L4.2334 2.90039L6.88477 5.55176L5.55176 6.88477ZM13.125 3.75H11.25V0H13.125V3.75ZM18.8232 6.88477L17.4902 5.55176L20.1416 2.90039L21.4746 4.2334L18.8232 6.88477ZM15.0879 26.8506C15.4004 27.0361 15.5566 27.3047 15.5566 27.6562C15.5566 27.9199 15.4639 28.1396 15.2783 28.3154C15.0928 28.4912 14.873 28.584 14.6191 28.5938C14.502 28.5938 14.375 28.5693 14.2383 28.5205C14.1016 28.4717 13.9697 28.4033 13.8428 28.3154C13.7158 28.2275 13.5889 28.1494 13.4619 28.0811C13.335 28.0127 13.2227 27.9443 13.125 27.876C13.125 28.0615 13.1299 28.2764 13.1396 28.5205C13.1494 28.7646 13.1348 28.9941 13.0957 29.209C13.0566 29.4238 12.9688 29.6094 12.832 29.7656C12.6953 29.9219 12.4805 30 12.1875 30C11.8945 30 11.6797 29.9268 11.543 29.7803C11.4062 29.6338 11.3184 29.4482 11.2793 29.2236C11.2402 28.999 11.2207 28.7646 11.2207 28.5205C11.2207 28.2764 11.2305 28.0615 11.25 27.876C11.1523 27.9346 11.0449 28.0029 10.9277 28.0811C10.8105 28.1592 10.6836 28.2373 10.5469 28.3154C10.4102 28.3936 10.2734 28.457 10.1367 28.5059C10 28.5547 9.87305 28.584 9.75586 28.5938C9.50195 28.5938 9.28223 28.5059 9.09668 28.3301C8.91113 28.1543 8.81836 27.9297 8.81836 27.6562C8.81836 27.3047 8.97461 27.0361 9.28711 26.8506L10.3125 26.25L9.28711 25.6494C8.97461 25.4639 8.81836 25.1953 8.81836 24.8438C8.81836 24.5898 8.90625 24.3701 9.08203 24.1846C9.25781 23.999 9.47754 23.9062 9.74121 23.9062C9.86816 23.9062 10 23.9307 10.1367 23.9795C10.2734 24.0283 10.4053 24.0967 10.5322 24.1846C10.6592 24.2725 10.7861 24.3506 10.9131 24.4189C11.04 24.4873 11.1523 24.5557 11.25 24.624C11.25 24.4385 11.2451 24.2236 11.2354 23.9795C11.2256 23.7354 11.2354 23.5059 11.2646 23.291C11.2939 23.0762 11.3867 22.8906 11.543 22.7344C11.6992 22.5781 11.9141 22.5 12.1875 22.5C12.4805 22.5 12.6904 22.5732 12.8174 22.7197C12.9443 22.8662 13.0322 23.0518 13.0811 23.2764C13.1299 23.501 13.1494 23.7354 13.1396 23.9795C13.1299 24.2236 13.125 24.4385 13.125 24.624C13.2227 24.5654 13.3301 24.4971 13.4473 24.4189C13.5645 24.3408 13.6914 24.2627 13.8281 24.1846C13.9648 24.1064 14.1016 24.043 14.2383 23.9941C14.375 23.9453 14.5068 23.916 14.6338 23.9062C14.8877 23.9062 15.1025 23.999 15.2783 24.1846C15.4541 24.3701 15.5469 24.5898 15.5566 24.8438C15.5566 25.1953 15.4004 25.4639 15.0879 25.6494L14.0625 26.25L15.0879 26.8506ZM22.1338 22.0312C22.3877 22.0312 22.6025 22.124 22.7783 22.3096C22.9541 22.4951 23.0469 22.7148 23.0566 22.9688C23.0566 23.3203 22.9004 23.5889 22.5879 23.7744L21.5625 24.375L22.5879 24.9756C22.9004 25.1611 23.0566 25.4297 23.0566 25.7812C23.0566 26.0449 22.9639 26.2646 22.7783 26.4404C22.5928 26.6162 22.373 26.709 22.1191 26.7188C22.002 26.7188 21.875 26.6943 21.7383 26.6455C21.6016 26.5967 21.4697 26.5283 21.3428 26.4404C21.2158 26.3525 21.0889 26.2744 20.9619 26.2061C20.835 26.1377 20.7227 26.0693 20.625 26.001C20.625 26.1865 20.6299 26.4014 20.6396 26.6455C20.6494 26.8896 20.6348 27.1191 20.5957 27.334C20.5566 27.5488 20.4688 27.7344 20.332 27.8906C20.1953 28.0469 19.9805 28.125 19.6875 28.125C19.3945 28.125 19.1797 28.0518 19.043 27.9053C18.9062 27.7588 18.8184 27.5732 18.7793 27.3486C18.7402 27.124 18.7207 26.8896 18.7207 26.6455C18.7207 26.4014 18.7305 26.1865 18.75 26.001C18.6523 26.0596 18.5449 26.1279 18.4277 26.2061C18.3105 26.2842 18.1836 26.3623 18.0469 26.4404C17.9102 26.5186 17.7734 26.582 17.6367 26.6309C17.5 26.6797 17.373 26.709 17.2559 26.7188C17.002 26.7188 16.7822 26.6309 16.5967 26.4551C16.4111 26.2793 16.3184 26.0547 16.3184 25.7812C16.3184 25.4297 16.4746 25.1611 16.7871 24.9756L17.8125 24.375L16.7871 23.7744C16.4746 23.5889 16.3184 23.3203 16.3184 22.9688C16.3184 22.7148 16.4062 22.4951 16.582 22.3096C16.7578 22.124 16.9775 22.0312 17.2412 22.0312C17.3682 22.0312 17.5 22.0557 17.6367 22.1045C17.7734 22.1533 17.9053 22.2217 18.0322 22.3096C18.1592 22.3975 18.2861 22.4756 18.4131 22.5439C18.54 22.6123 18.6523 22.6807 18.75 22.749C18.75 22.5635 18.7451 22.3486 18.7354 22.1045C18.7256 21.8604 18.7354 21.6309 18.7646 21.416C18.7939 21.2012 18.8867 21.0156 19.043 20.8594C19.1992 20.7031 19.4141 20.625 19.6875 20.625C19.9805 20.625 20.1904 20.6982 20.3174 20.8447C20.4443 20.9912 20.5322 21.1768 20.5811 21.4014C20.6299 21.626 20.6494 21.8604 20.6396 22.1045C20.6299 22.3486 20.625 22.5635 20.625 22.749C20.7227 22.6904 20.8301 22.6221 20.9473 22.5439C21.0645 22.4658 21.1914 22.3877 21.3281 22.3096C21.4648 22.2314 21.6016 22.168 21.7383 22.1191C21.875 22.0703 22.0068 22.041 22.1338 22.0312Z" fill="black"/>
</g>
<defs>
<clipPath id="clip0_815_14754">
<rect width="30" height="30" fill="white"/>
</clipPath>
</defs>
</svg>
