<svg width="32" height="32" viewBox="0 0 32 32" fill="none" xmlns="http://www.w3.org/2000/svg">
<path fill-rule="evenodd" clip-rule="evenodd" d="M6.66699 5.33301C4.45785 5.33301 2.66699 7.12387 2.66699 9.33301V22.6663C2.66699 24.8755 4.45785 26.6663 6.66699 26.6663H25.3337C27.5428 26.6663 29.3337 24.8755 29.3337 22.6663V9.33301C29.3337 7.12387 27.5428 5.33301 25.3337 5.33301H6.66699ZM6.43435 8.0199C6.50989 8.00661 6.58763 7.99967 6.66699 7.99967H25.3337C25.413 7.99967 25.4908 8.00661 25.5663 8.01991L16.0003 14.3972L6.43435 8.0199ZM5.33366 10.491V22.6663C5.33366 23.4027 5.93061 23.9997 6.66699 23.9997H25.3337C26.07 23.9997 26.667 23.4027 26.667 22.6663V10.4911L16.7399 17.1091C16.2921 17.4077 15.7086 17.4077 15.2607 17.1091L5.33366 10.491Z" fill="#A0ABBB"/>
</svg>
