<svg width="32" height="32" viewBox="0 0 32 32" fill="none" xmlns="http://www.w3.org/2000/svg">
<path fill-rule="evenodd" clip-rule="evenodd" d="M16.0003 5.33366C12.3184 5.33366 9.33366 8.31843 9.33366 12.0003C9.33366 15.7175 11.4826 21.1567 16.0003 26.0741C20.5181 21.1567 22.667 15.7175 22.667 12.0003C22.667 8.31843 19.6822 5.33366 16.0003 5.33366ZM6.66699 12.0003C6.66699 6.84567 10.8457 2.66699 16.0003 2.66699C21.155 2.66699 25.3337 6.84567 25.3337 12.0003C25.3337 16.8699 22.4477 23.4385 16.9431 28.9431C16.4224 29.4638 15.5782 29.4638 15.0575 28.9431C9.55292 23.4385 6.66699 16.8699 6.66699 12.0003Z" fill="#A0ABBB"/>
<path fill-rule="evenodd" clip-rule="evenodd" d="M16.0003 13.3337C16.7367 13.3337 17.3337 12.7367 17.3337 12.0003C17.3337 11.2639 16.7367 10.667 16.0003 10.667C15.2639 10.667 14.667 11.2639 14.667 12.0003C14.667 12.7367 15.2639 13.3337 16.0003 13.3337ZM16.0003 16.0003C18.2095 16.0003 20.0003 14.2095 20.0003 12.0003C20.0003 9.79119 18.2095 8.00033 16.0003 8.00033C13.7912 8.00033 12.0003 9.79119 12.0003 12.0003C12.0003 14.2095 13.7912 16.0003 16.0003 16.0003Z" fill="#A0ABBB"/>
</svg>
