<svg width="44" height="44" viewBox="0 0 44 44" fill="none" xmlns="http://www.w3.org/2000/svg">
<path d="M36.7978 30.7217H7.22949V33.6111H36.7978V30.7217Z" fill="white"/>
<path d="M22.0086 10.3899L6.31348 18.0449L7.58011 20.6419L23.2752 12.9869L22.0086 10.3899Z" fill="white"/>
<path d="M33.8965 17.843V25.543H36.7891V17.843H33.8965Z" fill="white"/>
<path d="M7.20996 17.843L7.20996 25.543H10.1026V17.843H7.20996Z" fill="white"/>
<path d="M37.7045 18.0449L22.0088 10.3896L20.7422 12.9866L36.4378 20.6419L37.7045 18.0449Z" fill="white"/>
<path d="M9.41458 27.5674H7.16113V26.4826H11.584V27.5674L9.2491 28.8176H11.584V29.9048H7.16113V28.8176L9.41458 27.5674ZM12.2079 29.9048V26.4826H16.2132V27.3585H13.5422V27.7965H16.2132V28.5884H13.5422V29.0264H16.2132V29.9048H12.2079ZM20.2618 28.2905V26.4775H21.5986V29.8998H20.0963L18.2579 27.8092V29.8998H16.9236V26.4775H18.7595L20.2618 28.2905ZM25.716 28.1937C25.716 27.8474 25.5199 27.5674 25.1736 27.5674H23.7121V28.8201H25.1736C25.5199 28.8201 25.716 28.5375 25.716 28.1937ZM22.3778 26.4826H25.4232C26.3627 26.4699 27.0605 27.2592 27.0528 28.1937C27.0605 29.1231 26.3627 29.9176 25.4232 29.9048H22.3778V26.4826ZM27.45 29.9048V26.4826H31.4553V27.3585H28.7843V27.7965H31.4553V28.5884H28.7843V29.0264H31.4553V29.9048H27.45ZM35.504 28.2905V26.4775H36.8408V29.8998H35.3384L33.5 27.8092V29.8998H32.1658V26.4775H34.0016L35.504 28.2905Z" fill="white"/>
</svg>
