<svg width="28" height="26" viewBox="0 0 28 26" fill="none" xmlns="http://www.w3.org/2000/svg">
<path d="M14.1667 6C15.1171 6 16.0286 6.35057 16.7006 6.97458C17.3726 7.59859 17.7501 8.44493 17.7501 9.32742C17.7501 10.2099 17.3726 11.0562 16.7006 11.6803C16.0286 12.3043 15.1171 12.6548 14.1667 12.6548C13.2164 12.6548 12.3049 12.3043 11.6329 11.6803C10.9609 11.0562 10.5834 10.2099 10.5834 9.32742C10.5834 8.44493 10.9609 7.59859 11.6329 6.97458C12.3049 6.35057 13.2164 6 14.1667 6ZM14.1667 14.3185C18.1264 14.3185 21.3335 15.8076 21.3335 17.646V19.3097H7V17.646C7 15.8076 10.2071 14.3185 14.1667 14.3185Z" fill="black"/>
<circle cx="14.5" cy="12.5" r="11.9318" stroke="black" stroke-width="1.13636"/>
</svg>
