<svg width="21" height="21" viewBox="0 0 21 21" fill="none" xmlns="http://www.w3.org/2000/svg">
<path d="M15.0128 4.51043C12.3565 1.89756 8.04992 1.89756 5.39368 4.51043C4.76303 5.12657 4.2619 5.86256 3.91976 6.67514C3.57762 7.48772 3.40137 8.3605 3.40137 9.24217C3.40137 10.1238 3.57762 10.9966 3.91976 11.8092C4.2619 12.6218 4.76303 13.3578 5.39368 13.9739L10.2028 18.7056L15.0128 13.9739C15.6434 13.3578 16.1445 12.6218 16.4867 11.8092C16.8288 10.9966 17.0051 10.1238 17.0051 9.24217C17.0051 8.3605 16.8288 7.48772 16.4867 6.67514C16.1445 5.86256 15.6434 5.12657 15.0128 4.51043ZM10.2028 11.4784C9.63482 11.4784 9.1017 11.2573 8.69952 10.856C8.30139 10.457 8.07779 9.91636 8.07779 9.35271C8.07779 8.78905 8.30139 8.24842 8.69952 7.84943C9.10085 7.44811 9.63482 7.22704 10.2028 7.22704C10.7708 7.22704 11.3047 7.44811 11.7061 7.84943C12.1042 8.24842 12.3278 8.78905 12.3278 9.35271C12.3278 9.91636 12.1042 10.457 11.7061 10.856C11.3047 11.2573 10.7708 11.4784 10.2028 11.4784Z" fill="#3D52A0"/>
</svg>
