<svg width="48" height="49" viewBox="0 0 48 49" fill="none" xmlns="http://www.w3.org/2000/svg">
<path d="M14 16.5C12.9 16.5 11.9587 16.1087 11.176 15.326C10.3933 14.5433 10.0013 13.6013 10 12.5C9.99867 11.3987 10.3907 10.4573 11.176 9.676C11.9613 8.89467 12.9027 8.50267 14 8.5C15.0973 8.49733 16.0393 8.88933 16.826 9.676C17.6127 10.4627 18.004 11.404 18 12.5C17.996 13.596 17.6047 14.538 16.826 15.326C16.0473 16.114 15.1053 16.5053 14 16.5ZM8 44.5C6.9 44.5 5.95867 44.1087 5.176 43.326C4.39333 42.5433 4.00133 41.6013 4 40.5V24.5H10V23C10 21.7333 10.4333 20.6667 11.3 19.8C12.1667 18.9333 13.2333 18.5 14.5 18.5C15.1667 18.5 15.7833 18.6333 16.35 18.9C16.9167 19.1667 17.4333 19.5333 17.9 20L20.7 23.1C20.9333 23.3667 21.1833 23.6167 21.45 23.85C21.7167 24.0833 22 24.3 22.3 24.5H44V40.5C44 41.6 43.6087 42.542 42.826 43.326C42.0433 44.11 41.1013 44.5013 40 44.5H8ZM36 20.5L36.2 19.3C36.3667 18.4667 36.308 17.658 36.024 16.874C35.74 16.09 35.2987 15.3987 34.7 14.8C33.7333 13.8333 33.0167 12.7087 32.55 11.426C32.0833 10.1433 31.9333 8.80133 32.1 7.4L32.2 6.5H36L35.8 7.7C35.6667 8.5 35.7253 9.292 35.976 10.076C36.2267 10.86 36.6347 11.5347 37.2 12.1C38.2 13.1 38.942 14.25 39.426 15.55C39.91 16.85 40.068 18.2 39.9 19.6L39.8 20.5H36ZM28 20.5L28.2 19.3C28.3667 18.4667 28.308 17.658 28.024 16.874C27.74 16.09 27.2987 15.3987 26.7 14.8C25.7333 13.8333 25.0167 12.7087 24.55 11.426C24.0833 10.1433 23.9333 8.80133 24.1 7.4L24.2 6.5H28L27.8 7.7C27.6333 8.5 27.6833 9.292 27.95 10.076C28.2167 10.86 28.6333 11.5347 29.2 12.1C30.2 13.1 30.942 14.25 31.426 15.55C31.91 16.85 32.068 18.2 31.9 19.6L31.8 20.5H28ZM34 40.5H38V28.5H34V40.5ZM26 40.5H30V28.5H26V40.5ZM18 40.5H22V28.5H18V40.5ZM10 40.5H14V28.5H10V40.5Z" fill="black" fill-opacity="0.8"/>
</svg>
