<svg width="113" height="113" viewBox="0 0 113 113" fill="none" xmlns="http://www.w3.org/2000/svg">
<circle cx="56.5" cy="56.5" r="56" fill="#4A61B5" stroke="#3D52A0"/>
<path d="M46.069 29.995C49.9343 28.9441 54.0419 28 56.5 28C58.9581 28 63.0657 28.9441 66.931 29.995C70.8854 31.0638 74.8718 32.3284 77.216 33.0944C78.196 33.418 79.0649 34.0116 79.7228 34.8069C80.3807 35.6022 80.8009 36.5669 80.9352 37.5903C83.0585 53.5396 78.1315 65.3599 72.1536 73.1796C69.6177 76.5239 66.5952 79.4695 63.1868 81.9184C62.0095 82.7679 60.7603 83.5129 59.4533 84.145C58.4558 84.6152 57.3835 85 56.5 85C55.6165 85 54.5478 84.6152 53.5467 84.145C52.2398 83.5129 50.9905 82.7679 49.8132 81.9184C46.4048 79.4695 43.3823 76.5239 40.8464 73.1796C34.8685 65.3599 29.9416 53.5396 32.0648 37.5903C32.1991 36.5669 32.6193 35.6022 33.2772 34.8069C33.9351 34.0116 34.804 33.418 35.7841 33.0944C39.1872 31.9793 42.6165 30.9459 46.069 29.995Z" fill="#F8F7FF"/>
</svg>
