<svg width="113" height="113" viewBox="0 0 113 113" fill="none" xmlns="http://www.w3.org/2000/svg">
<circle cx="56.5" cy="56.5" r="56" fill="#4A61B5" stroke="#3D52A0"/>
<path d="M56.3163 85.5C55.4191 85.5 54.6676 85.196 54.0617 84.588C53.4558 83.98 53.1518 83.2285 53.1497 82.3333C53.1497 81.9639 53.2288 81.5807 53.3872 81.1838C53.5455 80.787 53.783 80.4312 54.0997 80.1167L68.7455 65.4708L66.4497 63.175L51.883 77.8209C51.5663 78.1375 51.2233 78.375 50.8538 78.5333C50.4844 78.6917 50.0886 78.7708 49.6663 78.7708C48.7691 78.7708 48.0176 78.4679 47.4117 77.862C46.8058 77.2561 46.5018 76.5035 46.4997 75.6042C46.4997 75.0764 46.5788 74.6405 46.7372 74.2963C46.8955 73.9522 47.1066 73.6493 47.3705 73.3875L62.0163 58.7417L59.7997 56.525L45.1538 71.0917C44.8372 71.4083 44.4941 71.6458 44.1247 71.8042C43.7552 71.9625 43.333 72.0417 42.858 72.0417C42.0136 72.0417 41.2747 71.725 40.6413 71.0917C40.008 70.4583 39.6913 69.7195 39.6913 68.875C39.6913 68.4528 39.7705 68.057 39.9288 67.6875C40.0872 67.3181 40.3247 66.975 40.6413 66.6583L55.2872 52.0125L52.9913 49.7958L38.4247 64.4417C38.1608 64.7056 37.8441 64.9167 37.4747 65.075C37.1052 65.2333 36.6566 65.3125 36.1288 65.3125C35.2316 65.3125 34.479 65.0085 33.871 64.4005C33.263 63.7925 32.9601 63.041 32.9622 62.1458C32.9622 61.7236 33.0413 61.3278 33.1997 60.9583C33.358 60.5889 33.5955 60.2458 33.9122 59.9292L51.5663 42.275L63.4413 54.2292C64.0219 54.8097 64.708 55.2721 65.4997 55.6162C66.2913 55.9603 67.083 56.1313 67.8747 56.1292C69.5636 56.1292 71.0413 55.536 72.308 54.3495C73.5747 53.1631 74.208 51.6452 74.208 49.7958C74.208 49.057 74.0761 48.2917 73.8122 47.5C73.5483 46.7083 73.0733 45.9695 72.3872 45.2833L58.2163 31.1125C59.1136 30.2681 60.1163 29.6221 61.2247 29.1745C62.333 28.727 63.4413 28.5021 64.5497 28.5C65.9219 28.5 67.1886 28.7248 68.3497 29.1745C69.5108 29.6242 70.5663 30.323 71.5163 31.2708L84.8955 44.7292C85.8455 45.6792 86.5453 46.7347 86.995 47.8958C87.4447 49.057 87.6685 50.4028 87.6663 51.9333C87.6663 52.9889 87.4288 54.0582 86.9538 55.1412C86.4788 56.2242 85.7927 57.2132 84.8955 58.1083L58.533 84.55C58.1108 84.9722 57.7413 85.2361 57.4247 85.3417C57.108 85.4472 56.7386 85.5 56.3163 85.5ZM29.1622 60.1667L27.1038 58.1083C26.2066 57.2639 25.5205 56.2611 25.0455 55.1C24.5705 53.9389 24.333 52.725 24.333 51.4583C24.333 50.0861 24.5969 48.8195 25.1247 47.6583C25.6525 46.4972 26.3122 45.5208 27.1038 44.7292L40.483 31.2708C41.3275 30.4264 42.3302 29.753 43.4913 29.2505C44.6525 28.7481 45.7872 28.4979 46.8955 28.5C48.3205 28.5 49.5872 28.6985 50.6955 29.0953C51.8038 29.4922 52.8858 30.2174 53.9413 31.2708L70.1705 47.5C70.4872 47.8167 70.7247 48.1597 70.883 48.5292C71.0413 48.8986 71.1205 49.2945 71.1205 49.7167C71.1205 50.5611 70.8038 51.3 70.1705 51.9333C69.5372 52.5667 68.7983 52.8833 67.9538 52.8833C67.4788 52.8833 67.083 52.8179 66.7663 52.687C66.4497 52.5561 66.1066 52.3049 65.7372 51.9333L51.4872 37.8417L29.1622 60.1667Z" fill="#F8F8F8"/>
</svg>
