<svg width="113" height="113" viewBox="0 0 113 113" fill="none" xmlns="http://www.w3.org/2000/svg">
<circle cx="56.5" cy="56.5" r="56" fill="#4A61B5" stroke="#3D52A0"/>
<path d="M85.9561 37.0046L58.5811 27.8796C57.8801 27.643 57.1207 27.643 56.4196 27.8796L29.0446 37.0046C28.3914 37.221 27.8186 37.6292 27.401 38.1761C26.9834 38.7229 26.7403 39.383 26.7035 40.0701C26.7004 40.1299 26.7004 40.1899 26.7035 40.2497V63.0622C26.7035 63.9698 27.064 64.8401 27.7058 65.4818C28.3475 66.1236 29.2178 66.4841 30.1254 66.4841C31.0329 66.4841 31.9033 66.1236 32.545 65.4818C33.1867 64.8401 33.5473 63.9698 33.5473 63.0622V44.9976L40.3083 47.2503C38.21 51.2667 37.5865 55.8917 38.5462 60.3204C39.5059 64.7491 41.9882 68.7011 45.5609 71.4886C40.8855 73.7941 36.9287 77.3329 34.1176 81.7228C33.8644 82.0991 33.6886 82.5219 33.6003 82.9667C33.512 83.4115 33.513 83.8694 33.6032 84.3139C33.6934 84.7583 33.8711 85.1803 34.1258 85.5555C34.3806 85.9306 34.7074 86.2514 35.0873 86.4992C35.4671 86.7469 35.8924 86.9167 36.3384 86.9986C36.7844 87.0805 37.2423 87.073 37.6854 86.9764C38.1285 86.8798 38.5479 86.6962 38.9194 86.4361C39.2909 86.1759 39.6069 85.8446 39.8492 85.4612C43.9184 79.1992 50.3715 75.6091 57.5004 75.6091C64.6293 75.6091 71.0824 79.1992 75.1658 85.4612C75.4081 85.8446 75.7242 86.1759 76.0956 86.4361C76.4671 86.6962 76.8866 86.8798 77.3297 86.9764C77.7727 87.073 78.2306 87.0805 78.6766 86.9986C79.1227 86.9167 79.5479 86.7469 79.9278 86.4992C80.3076 86.2514 80.6344 85.9306 80.8892 85.5555C81.144 85.1803 81.3216 84.7583 81.4118 84.3139C81.5021 83.8694 81.5031 83.4115 81.4148 82.9667C81.3264 82.5219 81.1506 82.0991 80.8975 81.7228C78.0836 77.3278 74.1215 73.7858 69.4399 71.48C73.0126 68.6926 75.4949 64.7406 76.4546 60.3119C77.4143 55.8832 76.7908 51.2582 74.6925 47.2417L85.9561 43.4862C86.6366 43.2586 87.2283 42.8228 87.6475 42.2404C88.0668 41.6581 88.2923 40.9587 88.2923 40.2412C88.2923 39.5236 88.0668 38.8242 87.6475 38.2419C87.2283 37.6596 86.6366 37.2237 85.9561 36.9961V37.0046ZM57.5004 34.7234L74.0537 40.2497L57.5004 45.7675L40.9613 40.2497L57.5004 34.7234ZM70.0473 56.2185C70.0476 58.1673 69.594 60.0895 68.7224 61.8325C67.8507 63.5756 66.585 65.0916 65.0256 66.2605C63.4662 67.4294 61.6559 68.2189 59.7383 68.5665C57.8207 68.9141 55.8485 68.8102 53.978 68.2631C52.1075 67.716 50.3902 66.7407 48.9622 65.4145C47.5342 64.0883 46.4347 62.4477 45.751 60.6227C45.0673 58.7977 44.8181 56.8386 45.0232 54.9005C45.2282 52.9625 45.882 51.0989 46.9325 49.4574L56.4196 52.6198C57.1208 52.8556 57.8799 52.8556 58.5811 52.6198L68.0683 49.4574C69.3623 51.4749 70.0492 53.8217 70.0473 56.2185Z" fill="#F8F7FF"/>
</svg>
