<svg width="113" height="113" viewBox="0 0 113 113" fill="none" xmlns="http://www.w3.org/2000/svg">
<circle cx="56.5" cy="56.5" r="56.1512" fill="#4A61B5" stroke="#3D52A0" stroke-width="0.697531"/>
<path fill-rule="evenodd" clip-rule="evenodd" d="M47.0691 25.6338C33.3373 25.6338 22.2051 36.766 22.2051 50.4979C22.2051 81.3636 63.3594 87.3653 63.3594 87.3653V75.3619H65.9315C79.6634 75.3619 90.7956 64.2297 90.7956 50.4979C90.7956 36.766 79.6634 25.6338 65.9315 25.6338H47.0691ZM56.5003 55.6421C57.6373 55.6421 58.7277 55.1905 59.5316 54.3865C60.3356 53.5826 60.7873 52.4922 60.7873 51.3552C60.7873 50.2183 60.3356 49.1279 59.5316 48.3239C58.7277 47.52 57.6373 47.0683 56.5003 47.0683C55.3634 47.0683 54.273 47.52 53.469 48.3239C52.6651 49.1279 52.2134 50.2183 52.2134 51.3552C52.2134 52.4922 52.6651 53.5826 53.469 54.3865C54.273 55.1905 55.3634 55.6421 56.5003 55.6421ZM74.5054 51.3552C74.5054 52.4922 74.0537 53.5826 73.2498 54.3865C72.4458 55.1905 71.3554 55.6421 70.2185 55.6421C69.0815 55.6421 67.9911 55.1905 67.1872 54.3865C66.3832 53.5826 65.9315 52.4922 65.9315 51.3552C65.9315 50.2183 66.3832 49.1279 67.1872 48.3239C67.9911 47.52 69.0815 47.0683 70.2185 47.0683C71.3554 47.0683 72.4458 47.52 73.2498 48.3239C74.0537 49.1279 74.5054 50.2183 74.5054 51.3552ZM42.7822 55.6421C43.9192 55.6421 45.0096 55.1905 45.8135 54.3865C46.6175 53.5826 47.0691 52.4922 47.0691 51.3552C47.0691 50.2183 46.6175 49.1279 45.8135 48.3239C45.0096 47.52 43.9192 47.0683 42.7822 47.0683C41.6453 47.0683 40.5549 47.52 39.7509 48.3239C38.947 49.1279 38.4953 50.2183 38.4953 51.3552C38.4953 52.4922 38.947 53.5826 39.7509 54.3865C40.5549 55.1905 41.6453 55.6421 42.7822 55.6421Z" fill="#F8F8F8"/>
</svg>
