<svg width="48" height="49" viewBox="0 0 48 49" fill="none" xmlns="http://www.w3.org/2000/svg">
<g clip-path="url(#clip0_1097_3335)">
<path d="M47.3223 25.6953C47.7754 26.6953 48.002 27.7344 48.002 28.8125V30.5C48.002 31.0938 47.9238 31.6641 47.7676 32.2109C47.6113 32.7578 47.377 33.2656 47.0645 33.7344C46.752 34.2031 46.377 34.625 45.9395 35C45.502 35.375 45.0176 35.6875 44.4863 35.9375C44.252 36.4844 43.9473 36.9766 43.5723 37.4141C43.1973 37.8516 42.7676 38.2188 42.2832 38.5156C41.7988 38.8125 41.2832 39.0547 40.7363 39.2422C40.1895 39.4297 39.6113 39.5156 39.002 39.5C37.9238 39.5 36.9238 39.2344 36.002 38.7031C35.0801 38.1719 34.3457 37.4375 33.7988 36.5H17.2051C16.6582 37.4375 15.9238 38.1719 15.002 38.7031C14.0801 39.2344 13.0801 39.5 12.002 39.5C10.9238 39.5 9.92383 39.2344 9.00195 38.7031C8.08008 38.1719 7.3457 37.4375 6.79883 36.5H3.00195C2.58008 36.5 2.18945 36.4219 1.83008 36.2656C1.4707 36.1094 1.1582 35.8984 0.892578 35.6328C0.626953 35.3672 0.408203 35.0469 0.236328 34.6719C0.0644531 34.2969 -0.0136719 33.9062 0.00195313 33.5V27.5C0.00195313 26.2656 0.236328 25.1016 0.705078 24.0078C1.17383 22.9141 1.81445 21.9609 2.62695 21.1484C3.43945 20.3359 4.39258 19.6875 5.48633 19.2031C6.58008 18.7188 7.75195 18.4844 9.00195 18.5H9.86914L17.5566 10.8125C17.9785 10.3906 18.4629 10.0703 19.0098 9.85156C19.5566 9.63281 20.1348 9.51562 20.7441 9.5H42.002V12.5H41.3223L47.3223 25.6953ZM12.002 36.5C12.4238 36.5 12.8145 36.4219 13.1738 36.2656C13.5332 36.1094 13.8457 35.8984 14.1113 35.6328C14.377 35.3672 14.5957 35.0469 14.7676 34.6719C14.9395 34.2969 15.0176 33.9062 15.002 33.5C15.002 33.0781 14.9238 32.6875 14.7676 32.3281C14.6113 31.9688 14.4004 31.6562 14.1348 31.3906C13.8691 31.125 13.5488 30.9062 13.1738 30.7344C12.7988 30.5625 12.4082 30.4844 12.002 30.5C11.5801 30.5 11.1895 30.5781 10.8301 30.7344C10.4707 30.8906 10.1582 31.1016 9.89258 31.3672C9.62695 31.6328 9.4082 31.9531 9.23633 32.3281C9.06445 32.7031 8.98633 33.0938 9.00195 33.5C9.00195 33.9219 9.08008 34.3125 9.23633 34.6719C9.39258 35.0312 9.60352 35.3438 9.86914 35.6094C10.1348 35.875 10.4551 36.0938 10.8301 36.2656C11.2051 36.4375 11.5957 36.5156 12.002 36.5ZM27.002 12.5H20.7441C20.3379 12.5 19.9863 12.6484 19.6895 12.9453L14.1348 18.5H27.002V12.5ZM30.002 18.5H40.7598L38.4395 13.3672C38.3145 13.1016 38.127 12.8906 37.877 12.7344C37.627 12.5781 37.3535 12.5 37.0566 12.5H30.002V18.5ZM39.002 36.5C39.4238 36.5 39.8145 36.4219 40.1738 36.2656C40.5332 36.1094 40.8457 35.8984 41.1113 35.6328C41.377 35.3672 41.5957 35.0469 41.7676 34.6719C41.9395 34.2969 42.0176 33.9062 42.002 33.5C42.002 33.0781 41.9238 32.6875 41.7676 32.3281C41.6113 31.9688 41.4004 31.6562 41.1348 31.3906C40.8691 31.125 40.5488 30.9062 40.1738 30.7344C39.7988 30.5625 39.4082 30.4844 39.002 30.5C38.5801 30.5 38.1895 30.5781 37.8301 30.7344C37.4707 30.8906 37.1582 31.1016 36.8926 31.3672C36.627 31.6328 36.4082 31.9531 36.2363 32.3281C36.0645 32.7031 35.9863 33.0938 36.002 33.5C36.002 33.9219 36.0801 34.3125 36.2363 34.6719C36.3926 35.0312 36.6035 35.3438 36.8691 35.6094C37.1348 35.875 37.4551 36.0938 37.8301 36.2656C38.2051 36.4375 38.5957 36.5156 39.002 36.5Z" fill="black" fill-opacity="0.8"/>
</g>
<defs>
<clipPath id="clip0_1097_3335">
<rect width="48" height="48" fill="white" transform="translate(0 0.5)"/>
</clipPath>
</defs>
</svg>
