<svg width="113" height="113" viewBox="0 0 113 113" fill="none" xmlns="http://www.w3.org/2000/svg">
<circle cx="56.5" cy="56.5" r="56.1512" fill="#3D52A0" stroke="#3D52A0" stroke-width="0.697531"/>
<path fill-rule="evenodd" clip-rule="evenodd" d="M47.0691 25.6343C33.3373 25.6343 22.2051 36.7665 22.2051 50.4983C22.2051 81.3641 63.3594 87.3658 63.3594 87.3658V75.3624H65.9315C79.6634 75.3624 90.7956 64.2302 90.7956 50.4983C90.7956 36.7665 79.6634 25.6343 65.9315 25.6343H47.0691ZM56.5003 55.6426C57.6373 55.6426 58.7277 55.191 59.5316 54.387C60.3356 53.5831 60.7873 52.4927 60.7873 51.3557C60.7873 50.2188 60.3356 49.1284 59.5316 48.3244C58.7277 47.5205 57.6373 47.0688 56.5003 47.0688C55.3634 47.0688 54.273 47.5205 53.469 48.3244C52.6651 49.1284 52.2134 50.2188 52.2134 51.3557C52.2134 52.4927 52.6651 53.5831 53.469 54.387C54.273 55.191 55.3634 55.6426 56.5003 55.6426ZM74.5054 51.3557C74.5054 52.4927 74.0537 53.5831 73.2498 54.387C72.4458 55.191 71.3554 55.6426 70.2185 55.6426C69.0815 55.6426 67.9911 55.191 67.1872 54.387C66.3832 53.5831 65.9315 52.4927 65.9315 51.3557C65.9315 50.2188 66.3832 49.1284 67.1872 48.3244C67.9911 47.5205 69.0815 47.0688 70.2185 47.0688C71.3554 47.0688 72.4458 47.5205 73.2498 48.3244C74.0537 49.1284 74.5054 50.2188 74.5054 51.3557ZM42.7822 55.6426C43.9192 55.6426 45.0096 55.191 45.8135 54.387C46.6175 53.5831 47.0691 52.4927 47.0691 51.3557C47.0691 50.2188 46.6175 49.1284 45.8135 48.3244C45.0096 47.5205 43.9192 47.0688 42.7822 47.0688C41.6453 47.0688 40.5549 47.5205 39.7509 48.3244C38.947 49.1284 38.4953 50.2188 38.4953 51.3557C38.4953 52.4927 38.947 53.5831 39.7509 54.387C40.5549 55.191 41.6453 55.6426 42.7822 55.6426Z" fill="white"/>
</svg>
