<svg width="113" height="113" viewBox="0 0 113 113" fill="none" xmlns="http://www.w3.org/2000/svg">
<circle cx="56.5" cy="56.5" r="56.1512" fill="#3D52A0" stroke="#3D52A0" stroke-width="0.697531"/>
<path d="M75.2208 88.5627C72.5139 88.5627 68.7115 87.5837 63.0176 84.4025C56.0937 80.5197 50.7382 76.935 43.8518 70.0666C37.2122 63.4312 33.9811 59.1351 29.459 50.9063C24.3504 41.6153 25.2212 36.7452 26.1947 34.6637C27.354 32.1759 29.0652 30.688 31.277 29.2111C32.5333 28.388 33.8628 27.6824 35.2486 27.1033C35.3873 27.0437 35.5162 26.9868 35.6313 26.9355C36.3177 26.6263 37.3578 26.1589 38.6752 26.6582C39.5544 26.9882 40.3392 27.6635 41.5679 28.8769C44.0875 31.3619 47.5308 36.8963 48.801 39.6143C49.6538 41.4461 50.2182 42.6554 50.2196 44.0116C50.2196 45.5994 49.4209 46.8238 48.4515 48.1454C48.2699 48.3936 48.0896 48.6307 47.9149 48.8609C46.8596 50.2476 46.628 50.6484 46.7805 51.364C47.0898 52.802 49.3959 57.0828 53.1858 60.8644C56.9757 64.6459 61.1331 66.8064 62.5767 67.1143C63.3227 67.2738 63.7318 67.0325 65.1629 65.9398C65.3681 65.7831 65.5789 65.6208 65.7994 65.4586C67.2776 64.3589 68.4453 63.5809 69.9956 63.5809H70.0039C71.3532 63.5809 72.5083 64.1661 74.422 65.1313C76.9181 66.3904 82.6189 69.7893 85.1192 72.3117C86.3353 73.5376 87.0134 74.3197 87.3448 75.1975C87.8441 76.519 87.374 77.5549 87.0675 78.2483C87.0162 78.3634 86.9593 78.4896 86.8997 78.6296C86.316 80.0129 85.6062 81.3396 84.7794 82.5929C83.3053 84.7977 81.8118 86.5048 79.3185 87.6655C78.0382 88.2712 76.637 88.578 75.2208 88.5627Z" fill="#F8F8F8"/>
</svg>
