<svg width="113" height="113" viewBox="0 0 113 113" fill="none" xmlns="http://www.w3.org/2000/svg">
<circle cx="56.5" cy="56.5" r="56.5" fill="#3D52A0"/>
<path d="M79.667 33.3335H34.3337C31.217 33.3335 28.6953 35.8835 28.6953 39.0002L28.667 73.0002C28.667 76.1168 31.217 78.6668 34.3337 78.6668H79.667C82.7837 78.6668 85.3337 76.1168 85.3337 73.0002V39.0002C85.3337 35.8835 82.7837 33.3335 79.667 33.3335ZM78.5337 45.3752L58.502 57.8985C57.5953 58.4652 56.4053 58.4652 55.4987 57.8985L35.467 45.3752C35.1829 45.2157 34.9341 45.0002 34.7357 44.7418C34.5373 44.4834 34.3933 44.1874 34.3126 43.8717C34.2319 43.5561 34.2161 43.2273 34.2661 42.9054C34.3161 42.5834 34.4309 42.275 34.6036 41.9987C34.7763 41.7224 35.0032 41.484 35.2707 41.298C35.5382 41.1119 35.8406 40.9821 36.1597 40.9163C36.4788 40.8506 36.808 40.8502 37.1272 40.9153C37.4464 40.9805 37.7491 41.1097 38.017 41.2952L57.0003 53.1668L75.9837 41.2952C76.2515 41.1097 76.5542 40.9805 76.8735 40.9153C77.1927 40.8502 77.5218 40.8506 77.8409 40.9163C78.16 40.9821 78.4625 41.1119 78.7299 41.298C78.9974 41.484 79.2244 41.7224 79.397 41.9987C79.5697 42.275 79.6845 42.5834 79.7346 42.9054C79.7846 43.2273 79.7687 43.5561 79.688 43.8717C79.6073 44.1874 79.4634 44.4834 79.265 44.7418C79.0666 45.0002 78.8178 45.2157 78.5337 45.3752Z" fill="#F8F8F8"/>
</svg>
