<svg width="113" height="113" viewBox="0 0 113 113" fill="none" xmlns="http://www.w3.org/2000/svg">
<circle cx="56.5" cy="56.5" r="56.5" fill="#3D52A0"/>
<path d="M56.5026 28.5835C71.921 28.5835 84.4193 41.0818 84.4193 56.5002C84.4193 71.9185 71.921 84.4168 56.5026 84.4168C51.5691 84.4253 46.7223 83.1197 42.4606 80.6341L28.5971 84.4168L32.3715 70.5478C29.884 66.2848 28.5773 61.4359 28.586 56.5002C28.586 41.0818 41.0843 28.5835 56.5026 28.5835ZM46.9886 43.3793L46.4303 43.4017C46.0693 43.4265 45.7166 43.5213 45.3918 43.6808C45.0891 43.8525 44.8127 44.0669 44.5711 44.3173C44.2361 44.6328 44.0462 44.9064 43.8424 45.1716C42.8099 46.5141 42.2539 48.1623 42.2624 49.856C42.2679 51.2239 42.6253 52.5555 43.1836 53.8006C44.3254 56.3187 46.2042 58.9847 48.6832 61.4554C49.2806 62.05 49.8669 62.6474 50.4978 63.203C53.5782 65.9148 57.2488 67.8705 61.2178 68.9147L62.8034 69.1576C63.3199 69.1855 63.8364 69.1464 64.3556 69.1213C65.1685 69.0784 65.9622 68.8583 66.6811 68.4764C67.0463 68.2875 67.4031 68.0826 67.7503 67.8622C67.7503 67.8622 67.8685 67.7822 68.0992 67.611C68.4761 67.3318 68.7078 67.1336 69.0205 66.807C69.255 66.5651 69.4504 66.284 69.6067 65.9639C69.8245 65.5089 70.0422 64.6407 70.1316 63.9176C70.1986 63.3649 70.179 63.0634 70.1706 62.8763C70.1595 62.5776 69.911 62.2677 69.6402 62.1365L68.0155 61.4079C68.0155 61.4079 65.5867 60.3499 64.1016 59.6743C63.9461 59.6066 63.7796 59.5678 63.6102 59.5598C63.4192 59.5398 63.2261 59.5612 63.044 59.6223C62.862 59.6835 62.6952 59.7831 62.555 59.9144C62.541 59.9088 62.354 60.0679 60.3356 62.5134C60.2198 62.6691 60.0602 62.7867 59.8772 62.8514C59.6943 62.916 59.4962 62.9247 59.3083 62.8763C59.1263 62.8278 58.9481 62.7663 58.7751 62.6921C58.4289 62.5469 58.3089 62.4911 58.0716 62.3906C56.4688 61.6924 54.9852 60.7476 53.6747 59.5905C53.3229 59.2835 52.9963 58.9485 52.6613 58.6246C51.5631 57.5727 50.606 56.3829 49.8138 55.0848L49.6491 54.8196C49.5326 54.6403 49.437 54.4483 49.3644 54.2473C49.2583 53.8369 49.5346 53.5075 49.5346 53.5075C49.5346 53.5075 50.213 52.7649 50.5285 52.3629C50.8356 51.9721 51.0952 51.5924 51.2627 51.3216C51.5921 50.7912 51.6954 50.2468 51.5223 49.8253C50.7406 47.9158 49.9329 46.0165 49.0991 44.1275C48.9344 43.7534 48.4459 43.4854 48.002 43.4324C47.8513 43.4138 47.7005 43.3989 47.5498 43.3877C47.1749 43.3662 46.7991 43.3699 46.4247 43.3989L46.9886 43.3793Z" fill="#F8F8F8"/>
</svg>
