<svg width="58" height="59" viewBox="0 0 58 59" fill="none" xmlns="http://www.w3.org/2000/svg">
<path d="M49.6874 25.1229L31.5624 6.99791C30.8827 6.3186 29.961 5.93701 29 5.93701C28.039 5.93701 27.1174 6.3186 26.4376 6.99791L8.3126 25.1229C7.97435 25.4586 7.70623 25.8583 7.52381 26.2986C7.34139 26.7389 7.24833 27.211 7.25002 27.6876V49.4376C7.25002 49.9183 7.44098 50.3793 7.78089 50.7192C8.1208 51.0591 8.58182 51.2501 9.06252 51.2501H23.5625C24.0432 51.2501 24.5042 51.0591 24.8442 50.7192C25.1841 50.3793 25.375 49.9183 25.375 49.4376V36.7501H32.625V49.4376C32.625 49.9183 32.816 50.3793 33.1559 50.7192C33.4958 51.0591 33.9568 51.2501 34.4375 51.2501H48.9375C49.4182 51.2501 49.8792 51.0591 50.2192 50.7192C50.5591 50.3793 50.75 49.9183 50.75 49.4376V27.6876C50.7517 27.211 50.6587 26.7389 50.4762 26.2986C50.2938 25.8583 50.0257 25.4586 49.6874 25.1229ZM47.125 47.6251H36.25V34.9376C36.25 34.4569 36.0591 33.9959 35.7192 33.656C35.3792 33.3161 34.9182 33.1251 34.4375 33.1251H23.5625C23.0818 33.1251 22.6208 33.3161 22.2809 33.656C21.941 33.9959 21.75 34.4569 21.75 34.9376V47.6251H10.875V27.6876L29 9.5626L47.125 27.6876V47.6251Z" fill="black" fill-opacity="0.8"/>
</svg>
