<svg width="48" height="49" viewBox="0 0 48 49" fill="none" xmlns="http://www.w3.org/2000/svg">
<path d="M16 16.5H20V10.5H16V16.5ZM16 34.5H20V24.5H16V34.5ZM12 44.5C10.9 44.5 9.95867 44.1087 9.176 43.326C8.39333 42.5433 8.00133 41.6013 8 40.5V22.5H40V40.5C40 41.6 39.6087 42.542 38.826 43.326C38.0433 44.11 37.1013 44.5013 36 44.5H12ZM8 18.5V8.5C8 7.4 8.392 6.45867 9.176 5.676C9.96 4.89333 10.9013 4.50133 12 4.5H36C37.1 4.5 38.042 4.892 38.826 5.676C39.61 6.46 40.0013 7.40133 40 8.5V18.5H8Z" fill="black" fill-opacity="0.8"/>
</svg>
