<svg width="48" height="49" viewBox="0 0 48 49" fill="none" xmlns="http://www.w3.org/2000/svg">
<g clip-path="url(#clip0_1097_3337)">
<path d="M24 4.5C35.046 4.5 44 13.454 44 24.5C44 35.546 35.046 44.5 24 44.5C12.954 44.5 4 35.546 4 24.5C4 13.454 12.954 4.5 24 4.5ZM27 14.5H22C20.9391 14.5 19.9217 14.9214 19.1716 15.6716C18.4214 16.4217 18 17.4391 18 18.5V32.5C18 33.0304 18.2107 33.5391 18.5858 33.9142C18.9609 34.2893 19.4696 34.5 20 34.5C20.5304 34.5 21.0391 34.2893 21.4142 33.9142C21.7893 33.5391 22 33.0304 22 32.5V28.5H27C28.8565 28.5 30.637 27.7625 31.9497 26.4497C33.2625 25.137 34 23.3565 34 21.5C34 19.6435 33.2625 17.863 31.9497 16.5503C30.637 15.2375 28.8565 14.5 27 14.5ZM27 18.5C27.7956 18.5 28.5587 18.8161 29.1213 19.3787C29.6839 19.9413 30 20.7044 30 21.5C30 22.2956 29.6839 23.0587 29.1213 23.6213C28.5587 24.1839 27.7956 24.5 27 24.5H22V18.5H27Z" fill="black" fill-opacity="0.8"/>
</g>
<defs>
<clipPath id="clip0_1097_3337">
<rect width="48" height="48" fill="white" transform="translate(0 0.5)"/>
</clipPath>
</defs>
</svg>
