<svg width="60" height="49" viewBox="0 0 60 49" fill="none" xmlns="http://www.w3.org/2000/svg">
<g clip-path="url(#clip0_1097_3016)">
<path d="M33.75 7.25C33.75 6.25544 33.3549 5.30161 32.6516 4.59835C31.9484 3.89509 30.9946 3.5 30 3.5C29.0054 3.5 28.0516 3.89509 27.3484 4.59835C26.6451 5.30161 26.25 6.25544 26.25 7.25C26.25 8.24456 26.6451 9.19839 27.3484 9.90165C28.0516 10.6049 29.0054 11 30 11C30.9946 11 31.9484 10.6049 32.6516 9.90165C33.3549 9.19839 33.75 8.24456 33.75 7.25ZM13.5 20C14.4946 20 15.4484 19.6049 16.1516 18.9017C16.8549 18.1984 17.25 17.2446 17.25 16.25C17.25 15.2554 16.8549 14.3016 16.1516 13.5983C15.4484 12.8951 14.4946 12.5 13.5 12.5C12.5054 12.5 11.5516 12.8951 10.8483 13.5983C10.1451 14.3016 9.75 15.2554 9.75 16.25C9.75 17.2446 10.1451 18.1984 10.8483 18.9017C11.5516 19.6049 12.5054 20 13.5 20ZM3 39.5C1.34062 39.5 0 40.8406 0 42.5C0 44.1594 1.34062 45.5 3 45.5H57C58.6594 45.5 60 44.1594 60 42.5C60 40.8406 58.6594 39.5 57 39.5H3ZM46.5 20C47.4946 20 48.4484 19.6049 49.1517 18.9017C49.8549 18.1984 50.25 17.2446 50.25 16.25C50.25 15.2554 49.8549 14.3016 49.1517 13.5983C48.4484 12.8951 47.4946 12.5 46.5 12.5C45.5054 12.5 44.5516 12.8951 43.8484 13.5983C43.1451 14.3016 42.75 15.2554 42.75 16.25C42.75 17.2446 43.1451 18.1984 43.8484 18.9017C44.5516 19.6049 45.5054 20 46.5 20ZM18.75 29.8906L21.2719 34.5687C21.8625 35.6656 23.2219 36.0688 24.3187 35.4875C25.4156 34.9063 25.8188 33.5375 25.2375 32.4406L21.8344 26.1125C21.9937 25.9531 22.1344 25.775 22.2375 25.5687L24.75 20.8906V26C24.75 27.6594 26.0906 29 27.75 29H32.25C33.9094 29 35.25 27.6594 35.25 26V20.8906L37.7719 25.5687C37.8844 25.775 38.0156 25.9531 38.175 26.1125L34.7719 32.4406C34.1812 33.5375 34.5938 34.8969 35.6906 35.4875C36.7875 36.0781 38.1469 35.6656 38.7375 34.5687L41.25 29.8906V33.5C41.25 35.1594 42.5906 36.5 44.25 36.5H48.75C50.4094 36.5 51.75 35.1594 51.75 33.5V29.8906L54.2719 34.5687C54.8625 35.6656 56.2219 36.0688 57.3188 35.4875C58.4156 34.9063 58.8188 33.5375 58.2375 32.4406L54.6844 25.85C53.25 23.1781 50.4562 21.5094 47.4187 21.5094H45.5906C44.0625 21.5094 42.6 21.9312 41.3344 22.6906L38.1844 16.85C36.75 14.1781 33.9562 12.5094 30.9187 12.5094H29.0906C26.0531 12.5094 23.2688 14.1781 21.825 16.85L18.675 22.6906C17.4094 21.9312 15.9469 21.5094 14.4188 21.5094H12.5906C9.55313 21.5094 6.76875 23.1781 5.325 25.85L1.77187 32.4313C1.18125 33.5281 1.59375 34.8875 2.69063 35.4781C3.7875 36.0688 5.14687 35.6562 5.7375 34.5594L8.25 29.8906V33.5C8.25 35.1594 9.59062 36.5 11.25 36.5H15.75C17.4094 36.5 18.75 35.1594 18.75 33.5V29.8906Z" fill="black"/>
</g>
<defs>
<clipPath id="clip0_1097_3016">
<rect width="60" height="48" fill="white" transform="translate(0 0.5)"/>
</clipPath>
</defs>
</svg>
