<svg width="48" height="49" viewBox="0 0 48 49" fill="none" xmlns="http://www.w3.org/2000/svg">
<path d="M24 20.5C24.9193 20.5 25.8295 20.3189 26.6788 19.9672C27.5281 19.6154 28.2997 19.0998 28.9497 18.4497C29.5998 17.7997 30.1154 17.0281 30.4672 16.1788C30.8189 15.3295 31 14.4193 31 13.5C31 12.5807 30.8189 11.6705 30.4672 10.8212C30.1154 9.97194 29.5998 9.20026 28.9497 8.55025C28.2997 7.90024 27.5281 7.38463 26.6788 7.03284C25.8295 6.68106 24.9193 6.5 24 6.5C22.1435 6.5 20.363 7.2375 19.0503 8.55025C17.7375 9.86301 17 11.6435 17 13.5C17 15.3565 17.7375 17.137 19.0503 18.4497C20.363 19.7625 22.1435 20.5 24 20.5ZM6 41.3V42.5H42V41.3C42 36.82 42 34.58 41.128 32.868C40.361 31.3628 39.1372 30.139 37.632 29.372C35.92 28.5 33.68 28.5 29.2 28.5H18.8C14.32 28.5 12.08 28.5 10.368 29.372C8.86277 30.139 7.63898 31.3628 6.872 32.868C6 34.58 6 36.82 6 41.3Z" fill="black" stroke="black" stroke-width="4" stroke-linecap="round" stroke-linejoin="round"/>
</svg>
