<svg width="48" height="49" viewBox="0 0 48 49" fill="none" xmlns="http://www.w3.org/2000/svg">
<path d="M14.25 24.5C17.9779 24.5 21 21.4779 21 17.75C21 14.0221 17.9779 11 14.25 11C10.5221 11 7.5 14.0221 7.5 17.75C7.5 21.4779 10.5221 24.5 14.25 24.5Z" fill="black"/>
<path d="M21.9375 28.25C19.2975 26.9094 16.3837 26.375 14.25 26.375C10.0706 26.375 1.5 28.9381 1.5 34.0625V38H15.5625V36.4934C15.5625 34.7122 16.3125 32.9262 17.625 31.4375C18.6722 30.2487 20.1384 29.1453 21.9375 28.25Z" fill="black"/>
<path d="M31.875 27.5C26.9934 27.5 17.25 30.515 17.25 36.5V41H46.5V36.5C46.5 30.515 36.7566 27.5 31.875 27.5Z" fill="black"/>
<path d="M31.875 24.5C36.4313 24.5 40.125 20.8063 40.125 16.25C40.125 11.6937 36.4313 8 31.875 8C27.3187 8 23.625 11.6937 23.625 16.25C23.625 20.8063 27.3187 24.5 31.875 24.5Z" fill="black"/>
</svg>
