<svg width="48" height="49" viewBox="0 0 48 49" fill="none" xmlns="http://www.w3.org/2000/svg">
<path d="M4 40.5C4.45434 41.133 5.05594 41.6459 5.75285 41.9943C6.44975 42.3428 7.22101 42.5163 8 42.5C8.77899 42.5163 9.55025 42.3428 10.2472 41.9943C10.9441 41.6459 11.5457 41.133 12 40.5C12.4543 39.867 13.0559 39.3541 13.7528 39.0057C14.4498 38.6572 15.221 38.4837 16 38.5C16.779 38.4837 17.5502 38.6572 18.2472 39.0057C18.9441 39.3541 19.5457 39.867 20 40.5C20.4543 41.133 21.0559 41.6459 21.7528 41.9943C22.4498 42.3428 23.221 42.5163 24 42.5C24.779 42.5163 25.5502 42.3428 26.2472 41.9943C26.9441 41.6459 27.5457 41.133 28 40.5C28.4543 39.867 29.0559 39.3541 29.7528 39.0057C30.4498 38.6572 31.221 38.4837 32 38.5C32.779 38.4837 33.5502 38.6572 34.2472 39.0057C34.9441 39.3541 35.5457 39.867 36 40.5C36.4543 41.133 37.0559 41.6459 37.7528 41.9943C38.4498 42.3428 39.221 42.5163 40 42.5C40.779 42.5163 41.5502 42.3428 42.2472 41.9943C42.9441 41.6459 43.5457 41.133 44 40.5M4 32.5C4.45434 33.133 5.05594 33.6459 5.75285 33.9943C6.44975 34.3428 7.22101 34.5163 8 34.5C8.77899 34.5163 9.55025 34.3428 10.2472 33.9943C10.9441 33.6459 11.5457 33.133 12 32.5C12.4543 31.867 13.0559 31.3541 13.7528 31.0057C14.4498 30.6572 15.221 30.4837 16 30.5C16.779 30.4837 17.5502 30.6572 18.2472 31.0057C18.9441 31.3541 19.5457 31.867 20 32.5C20.4543 33.133 21.0559 33.6459 21.7528 33.9943C22.4498 34.3428 23.221 34.5163 24 34.5C24.779 34.5163 25.5502 34.3428 26.2472 33.9943C26.9441 33.6459 27.5457 33.133 28 32.5C28.4543 31.867 29.0559 31.3541 29.7528 31.0057C30.4498 30.6572 31.221 30.4837 32 30.5C32.779 30.4837 33.5502 30.6572 34.2472 31.0057C34.9441 31.3541 35.5457 31.867 36 32.5C36.4543 33.133 37.0559 33.6459 37.7528 33.9943C38.4498 34.3428 39.221 34.5163 40 34.5C40.779 34.5163 41.5502 34.3428 42.2472 33.9943C42.9441 33.6459 43.5457 33.133 44 32.5M30 24.5V9.5C30 8.70435 30.3161 7.94129 30.8787 7.37868C31.4413 6.81607 32.2044 6.5 33 6.5C33.7956 6.5 34.5587 6.81607 35.1213 7.37868C35.6839 7.94129 36 8.70435 36 9.5M18 24.5V9.5C18 8.70435 17.6839 7.94129 17.1213 7.37868C16.5587 6.81607 15.7956 6.5 15 6.5C14.2044 6.5 13.4413 6.81607 12.8787 7.37868C12.3161 7.94129 12 8.70435 12 9.5M30 10.5H18M18 20.5H30" stroke="black" stroke-width="2" stroke-linecap="round" stroke-linejoin="round"/>
</svg>
