<svg width="48" height="49" viewBox="0 0 48 49" fill="none" xmlns="http://www.w3.org/2000/svg">
<path d="M7.5 41C7.5 40.6022 7.65804 40.2206 7.93934 39.9393C8.22064 39.658 8.60218 39.5 9 39.5H39C39.3978 39.5 39.7794 39.658 40.0607 39.9393C40.342 40.2206 40.5 40.6022 40.5 41C40.5 41.3978 40.342 41.7794 40.0607 42.0607C39.7794 42.342 39.3978 42.5 39 42.5H9C8.60218 42.5 8.22064 42.342 7.93934 42.0607C7.65804 41.7794 7.5 41.3978 7.5 41ZM6 6.5H42C42 6.5 48 6.5 48 12.5V30.5C48 30.5 48 36.5 42 36.5H6C6 36.5 0 36.5 0 30.5V12.5C0 12.5 0 6.5 6 6.5Z" fill="black" fill-opacity="0.8"/>
</svg>
