<svg width="48" height="49" viewBox="0 0 48 49" fill="none" xmlns="http://www.w3.org/2000/svg">
<path d="M16.5 28C16.497 26.12 17.2002 24.3075 18.4703 22.9214C19.7403 21.5353 21.4846 20.6767 23.3577 20.5157C25.2308 20.3547 27.096 20.903 28.584 22.0521C30.072 23.2011 31.0741 24.8671 31.392 26.72C31.0184 27.0701 30.5866 27.3524 30.116 27.554C29.048 28.014 27.284 28.29 24.242 27.53C20.848 26.682 18.562 27.186 16.962 28.178C16.81 28.273 16.6613 28.373 16.516 28.478C16.5059 28.3189 16.5006 28.1595 16.5 28ZM12.5 6.5C10.7761 6.5 9.12279 7.18482 7.90381 8.40381C6.68482 9.62279 6 11.2761 6 13V36C6 37.7239 6.68482 39.3772 7.90381 40.5962C9.12279 41.8152 10.7761 42.5 12.5 42.5H35.5C37.2239 42.5 38.8772 41.8152 40.0962 40.5962C41.3152 39.3772 42 37.7239 42 36V13C42 11.2761 41.3152 9.62279 40.0962 8.40381C38.8772 7.18482 37.2239 6.5 35.5 6.5H12.5ZM16 15C15.4696 15 14.9609 14.7893 14.5858 14.4142C14.2107 14.0391 14 13.5304 14 13C14 12.4696 14.2107 11.9609 14.5858 11.5858C14.9609 11.2107 15.4696 11 16 11C16.5304 11 17.0391 11.2107 17.4142 11.5858C17.7893 11.9609 18 12.4696 18 13C18 13.5304 17.7893 14.0391 17.4142 14.4142C17.0391 14.7893 16.5304 15 16 15ZM24 13C24 12.6022 24.158 12.2206 24.4393 11.9393C24.7206 11.658 25.1022 11.5 25.5 11.5H32.5C32.8978 11.5 33.2794 11.658 33.5607 11.9393C33.842 12.2206 34 12.6022 34 13C34 13.3978 33.842 13.7794 33.5607 14.0607C33.2794 14.342 32.8978 14.5 32.5 14.5H25.5C25.1022 14.5 24.7206 14.342 24.4393 14.0607C24.158 13.7794 24 13.3978 24 13ZM24 17.5C25.3789 17.5 26.7443 17.7716 28.0182 18.2993C29.2921 18.8269 30.4496 19.6004 31.4246 20.5754C32.3996 21.5504 33.1731 22.7079 33.7007 23.9818C34.2284 25.2557 34.5 26.6211 34.5 28C34.5 29.3789 34.2284 30.7443 33.7007 32.0182C33.1731 33.2921 32.3996 34.4496 31.4246 35.4246C30.4496 36.3996 29.2921 37.1731 28.0182 37.7007C26.7443 38.2284 25.3789 38.5 24 38.5C21.2152 38.5 18.5445 37.3938 16.5754 35.4246C14.6062 33.4555 13.5 30.7848 13.5 28C13.5 25.2152 14.6062 22.5445 16.5754 20.5754C18.5445 18.6062 21.2152 17.5 24 17.5Z" fill="black" fill-opacity="0.8"/>
</svg>
