<svg width="48" height="49" viewBox="0 0 48 49" fill="none" xmlns="http://www.w3.org/2000/svg">
<g clip-path="url(#clip0_1097_3311)">
<path d="M23.9987 33.5C24.7944 33.5 25.5574 33.8161 26.12 34.3787C26.6827 34.9413 26.9987 35.7044 26.9987 36.5C26.9987 37.2957 26.6827 38.0587 26.12 38.6213C25.5574 39.1839 24.7944 39.5 23.9987 39.5C23.2031 39.5 22.44 39.1839 21.8774 38.6213C21.3148 38.0587 20.9987 37.2957 20.9987 36.5C20.9987 35.7044 21.3148 34.9413 21.8774 34.3787C22.44 33.8161 23.2031 33.5 23.9987 33.5ZM23.9987 25.5C26.9158 25.4996 29.7136 26.6578 31.7767 28.72C32.323 29.2632 32.6393 29.9958 32.6602 30.7659C32.6811 31.5359 32.4049 32.2846 31.8889 32.8566C31.3729 33.4286 30.6567 33.7802 29.8885 33.8386C29.1204 33.8969 28.3592 33.6575 27.7627 33.17L27.5347 32.964C27.0703 32.4998 26.519 32.1315 25.9123 31.8803C25.3056 31.6291 24.6554 31.4999 23.9987 31.5C22.7547 31.5 21.6207 31.95 20.7447 32.702L20.4647 32.964C19.9022 33.5268 19.1391 33.8431 18.3434 33.8433C17.5477 33.8435 16.7845 33.5275 16.2217 32.965C15.6589 32.4025 15.3427 31.6394 15.3425 30.8437C15.3423 30.048 15.6582 29.2848 16.2207 28.722C18.2836 26.6591 21.0814 25.5001 23.9987 25.5ZM23.9987 17.5C29.2447 17.5 33.9987 19.63 37.4327 23.066C37.7275 23.3407 37.9639 23.6719 38.1278 24.0399C38.2918 24.4079 38.38 24.8051 38.3871 25.2079C38.3942 25.6107 38.3201 26.0109 38.1692 26.3844C38.0183 26.758 37.7938 27.0973 37.5089 27.3822C37.224 27.667 36.8847 27.8916 36.5111 28.0425C36.1376 28.1934 35.7374 28.2675 35.3346 28.2604C34.9318 28.2533 34.5346 28.1651 34.1666 28.0011C33.7986 27.8372 33.4674 27.6008 33.1927 27.306C31.9866 26.0972 30.5534 25.1386 28.9756 24.4855C27.3977 23.8323 25.7064 23.4974 23.9987 23.5C22.2913 23.4979 20.6002 23.8333 19.0227 24.4868C17.4453 25.1403 16.0125 26.0991 14.8067 27.308C14.2442 27.8708 13.4811 28.1871 12.6854 28.1873C11.8897 28.1875 11.1265 27.8715 10.5637 27.309C10.0009 26.7465 9.68466 25.9834 9.68447 25.1877C9.68428 24.392 10.0002 23.6288 10.5627 23.066C12.3258 21.2996 14.4202 19.8987 16.7258 18.9435C19.0315 17.9884 21.503 17.4978 23.9987 17.5ZM23.9987 9.50002C31.4527 9.50002 38.2087 12.526 43.0907 17.408C43.3693 17.6867 43.5902 18.0175 43.7409 18.3815C43.8916 18.7456 43.9691 19.1357 43.969 19.5297C43.9689 19.9237 43.8912 20.3138 43.7403 20.6778C43.5895 21.0418 43.3684 21.3725 43.0897 21.651C42.8111 21.9296 42.4803 22.1505 42.1162 22.3012C41.7522 22.4519 41.362 22.5294 40.968 22.5293C40.574 22.5292 40.1839 22.4515 39.8199 22.3006C39.4559 22.1498 39.1253 21.9287 38.8467 21.65C36.8994 19.6967 34.5851 18.1478 32.0369 17.0923C29.4886 16.0369 26.7569 15.4957 23.9987 15.5C18.1987 15.5 12.9527 17.848 9.14872 21.65C8.87325 21.9414 8.54215 22.1746 8.175 22.3358C7.80786 22.4971 7.41212 22.583 7.01117 22.5887C6.61022 22.5944 6.21221 22.5196 5.84065 22.3688C5.4691 22.2181 5.13154 21.9943 4.84793 21.7108C4.56432 21.4274 4.34042 21.0899 4.18946 20.7184C4.0385 20.3469 3.96355 19.949 3.96903 19.548C3.97451 19.1471 4.06032 18.7513 4.22137 18.3841C4.38243 18.0168 4.61547 17.6856 4.90672 17.41C7.41113 14.8989 10.387 12.9075 13.6635 11.55C16.9399 10.1926 20.4522 9.49588 23.9987 9.50002Z" fill="black" fill-opacity="0.8"/>
</g>
<defs>
<clipPath id="clip0_1097_3311">
<rect width="48" height="48" fill="white" transform="translate(0 0.5)"/>
</clipPath>
</defs>
</svg>
