<svg width="38" height="39" viewBox="0 0 38 39" fill="none" xmlns="http://www.w3.org/2000/svg">
<g clip-path="url(#clip0_1097_3359)">
<path fill-rule="evenodd" clip-rule="evenodd" d="M10.2746 4.5851H27.7329C27.7845 4.5851 27.8252 4.62581 27.8252 4.67739V15.3472C27.8252 15.3717 27.8155 15.3952 27.7982 15.4125C27.7809 15.4298 27.7574 15.4395 27.7329 15.4395H10.2746C10.2502 15.4395 10.2267 15.4298 10.2094 15.4125C10.1921 15.3952 10.1824 15.3717 10.1824 15.3472V4.67739C10.1824 4.6231 10.2231 4.5851 10.2746 4.5851ZM27.7329 0.513672H10.2746C7.97564 0.513672 6.11093 2.37296 6.11093 4.67739V15.3472C6.11093 17.6462 7.97564 19.511 10.2746 19.511H16.9681V22.2687H5.98064C4.64287 22.2694 3.36013 22.8013 2.41444 23.7475C1.46874 24.6937 0.9375 25.9768 0.9375 27.3145V36.4535C0.9375 36.9934 1.15198 37.5112 1.53375 37.893C1.91552 38.2748 2.43331 38.4892 2.97321 38.4892C3.51312 38.4892 4.03091 38.2748 4.41268 37.893C4.79445 37.5112 5.00893 36.9934 5.00893 36.4535V29.619H32.9986V36.4535C32.9986 36.9934 33.2131 37.5112 33.5949 37.893C33.9767 38.2748 34.4945 38.4892 35.0344 38.4892C35.5743 38.4892 36.0921 38.2748 36.4738 37.893C36.8556 37.5112 37.0701 36.9934 37.0701 36.4535V27.3118C37.0694 25.9745 36.5378 24.6922 35.5922 23.7466C34.6466 22.801 33.3642 22.2694 32.0269 22.2687H21.0341V19.5137H27.7329C30.0319 19.5137 31.8966 17.649 31.8966 15.35V4.67739C31.8966 2.37567 30.0319 0.513672 27.7329 0.513672Z" fill="black" fill-opacity="0.8"/>
</g>
<defs>
<clipPath id="clip0_1097_3359">
<rect width="38" height="38" fill="white" transform="translate(0 0.5)"/>
</clipPath>
</defs>
</svg>
