<svg width="18" height="21" viewBox="0 0 18 21" fill="none" xmlns="http://www.w3.org/2000/svg">
<path d="M11.7637 15.7083H16.4512L15.134 14.2449C14.7768 13.848 14.5762 13.3097 14.5762 12.7484V9.45834C14.5762 6.73705 13.0109 4.42197 10.8262 3.56397V3.20833C10.8262 2.05774 9.98671 1.125 8.95117 1.125C7.91564 1.125 7.07617 2.05774 7.07617 3.20833V3.56397C4.89144 4.42197 3.32617 6.73705 3.32617 9.45834V12.7484C3.32617 13.3097 3.1255 13.848 2.7683 14.2449L1.45117 15.7083H6.13867M11.7637 15.7083V16.75C11.7637 18.4759 10.5045 19.875 8.95117 19.875C7.39787 19.875 6.13867 18.4759 6.13867 16.75V15.7083M11.7637 15.7083H6.13867" stroke="white" stroke-width="1.2" stroke-linecap="round" stroke-linejoin="round"/>
</svg>
