<svg width="17" height="16" viewBox="0 0 17 16" fill="none" xmlns="http://www.w3.org/2000/svg">
<path d="M7.24382 2.23798C7.58427 0.920672 9.57874 0.920673 9.9192 2.23798C10.1391 3.08895 11.177 3.49278 11.9732 3.03714C13.2055 2.33179 14.6158 3.65653 13.8649 4.81414C13.3799 5.56194 13.8098 6.53688 14.7157 6.74347C16.1181 7.06327 16.1181 8.93673 14.7157 9.25653C13.8098 9.46312 13.3799 10.4381 13.8649 11.1859C14.6158 12.3435 13.2055 13.6682 11.9732 12.9629C11.177 12.5072 10.1391 12.9111 9.9192 13.762C9.57874 15.0793 7.58427 15.0793 7.24382 13.762C7.02389 12.9111 5.98597 12.5072 5.18986 12.9629C3.95748 13.6682 2.54718 12.3435 3.29808 11.1859C3.78316 10.4381 3.35324 9.46312 2.44731 9.25653C1.04491 8.93673 1.04491 7.06327 2.44731 6.74347C3.35324 6.53688 3.78316 5.56194 3.29808 4.81414C2.54718 3.65653 3.95748 2.33179 5.18986 3.03714C5.98597 3.49278 7.02389 3.08895 7.24382 2.23798Z" stroke="#002855" stroke-width="1.2" stroke-linecap="round" stroke-linejoin="round"/>
<path d="M10.9768 8C10.9768 9.24264 9.90441 10.25 8.58151 10.25C7.2586 10.25 6.18617 9.24264 6.18617 8C6.18617 6.75736 7.2586 5.75 8.58151 5.75C9.90441 5.75 10.9768 6.75736 10.9768 8Z" stroke="#002855" stroke-width="1.2" stroke-linecap="round" stroke-linejoin="round"/>
</svg>
