<svg width="24" height="23" viewBox="0 0 24 23" fill="none" xmlns="http://www.w3.org/2000/svg">
<path d="M1.47949 11.5001L3.79896 9.31909M3.79896 9.31909L11.9171 1.68555L20.0352 9.31909M3.79896 9.31909V20.2242C3.79896 20.8264 4.31819 21.3147 4.95869 21.3147H8.4379M20.0352 9.31909L22.3547 11.5001M20.0352 9.31909V20.2242C20.0352 20.8264 19.516 21.3147 18.8755 21.3147H15.3963M8.4379 21.3147C9.0784 21.3147 9.59763 20.8264 9.59763 20.2242V15.8621C9.59763 15.2599 10.1169 14.7716 10.7574 14.7716H13.0768C13.7173 14.7716 14.2366 15.2599 14.2366 15.8621V20.2242C14.2366 20.8264 14.7558 21.3147 15.3963 21.3147M8.4379 21.3147H15.3963" stroke="#002855" stroke-width="1.74481" stroke-linecap="round" stroke-linejoin="round"/>
</svg>
