<svg width="44" height="44" viewBox="0 0 44 44" fill="none" xmlns="http://www.w3.org/2000/svg">
<path d="M36.7983 30.7217H7.22998V33.6111H36.7983V30.7217Z" fill="white"/>
<path d="M22.0081 10.3899L6.31299 18.0449L7.57962 20.6419L23.2747 12.9869L22.0081 10.3899Z" fill="white"/>
<path d="M33.897 17.843V25.543H36.7896V17.843H33.897Z" fill="white"/>
<path d="M7.20996 17.843L7.20996 25.543H10.1026V17.843H7.20996Z" fill="white"/>
<path d="M37.7045 18.0449L22.0088 10.3896L20.7422 12.9866L36.4378 20.6419L37.7045 18.0449Z" fill="white"/>
<path d="M9.41507 27.5674H7.16162V26.4826H11.5845V27.5674L9.24958 28.8176H11.5845V29.9048H7.16162V28.8176L9.41507 27.5674ZM12.2084 29.9048V26.4826H16.2137V27.3585H13.5426V27.7965H16.2137V28.5884H13.5426V29.0264H16.2137V29.9048H12.2084ZM20.2623 28.2905V26.4775H21.5991V29.8998H20.0968L18.2584 27.8092V29.8998H16.9241V26.4775H18.76L20.2623 28.2905ZM25.7165 28.1937C25.7165 27.8474 25.5204 27.5674 25.1741 27.5674H23.7125V28.8201H25.1741C25.5204 28.8201 25.7165 28.5375 25.7165 28.1937ZM22.3783 26.4826H25.4237C26.3632 26.4699 27.0609 27.2592 27.0533 28.1937C27.0609 29.1231 26.3632 29.9176 25.4237 29.9048H22.3783V26.4826ZM27.4505 29.9048V26.4826H31.4558V27.3585H28.7848V27.7965H31.4558V28.5884H28.7848V29.0264H31.4558V29.9048H27.4505ZM35.5045 28.2905V26.4775H36.8412V29.8998H35.3389L33.5005 27.8092V29.8998H32.1663V26.4775H34.0021L35.5045 28.2905Z" fill="white"/>
</svg>
