<svg width="18" height="19" viewBox="0 0 18 19" fill="none" xmlns="http://www.w3.org/2000/svg">
<path d="M3.62 8.01168C5.06 10.8417 7.38 13.1517 10.21 14.6017L12.41 12.4017C12.68 12.1317 13.08 12.0417 13.43 12.1617C14.55 12.5317 15.76 12.7317 17 12.7317C17.55 12.7317 18 13.1817 18 13.7317V17.2217C18 17.7717 17.55 18.2217 17 18.2217C7.61 18.2217 0 10.6117 0 1.22168C0 0.67168 0.45 0.22168 1 0.22168H4.5C5.05 0.22168 5.5 0.67168 5.5 1.22168C5.5 2.47168 5.7 3.67168 6.07 4.79168C6.18 5.14168 6.1 5.53168 5.82 5.81168L3.62 8.01168Z" fill="#2C3A6B"/>
</svg>
