<svg width="12" height="24" viewBox="0 0 12 24" fill="none" xmlns="http://www.w3.org/2000/svg">
<path d="M4 6.5C4 5.95 4.19567 5.47933 4.587 5.088C4.97833 4.69667 5.44933 4.50067 6 4.5C6.55067 4.49933 7.02133 4.69533 7.412 5.088C7.80267 5.48067 7.99867 5.95133 8 6.5C8.00133 7.04867 7.80533 7.51967 7.412 7.913C7.01867 8.30633 6.548 8.502 6 8.5C5.452 8.498 4.981 8.30233 4.587 7.913C4.193 7.52367 3.99733 7.05267 4 6.5ZM0 6.5C0 4.83333 0.583333 3.41667 1.75 2.25C2.91667 1.08333 4.33333 0.5 6 0.5C7.66667 0.5 9.08333 1.08333 10.25 2.25C11.4167 3.41667 12 4.83333 12 6.5C12 7.61667 11.725 8.62933 11.175 9.538C10.625 10.4467 9.9 11.1673 9 11.7L9 20.5L6 23.5L1.5 19L3 17L1.5 15L3 12.875V11.7C2.1 11.1667 1.375 10.446 0.825001 9.538C0.275001 8.63 0 7.61733 0 6.5ZM2 6.5C2 7.43333 2.28333 8.25433 2.85 8.963C3.41667 9.67167 4.13333 10.1423 5 10.375V13.5L3.975 14.95L5.5 17L4.125 18.775L6 20.65L7 19.65V10.375C7.86667 10.1417 8.58333 9.671 9.15 8.963C9.71667 8.255 10 7.434 10 6.5C10 5.4 9.60833 4.45833 8.825 3.675C8.04167 2.89167 7.1 2.5 6 2.5C4.9 2.5 3.95833 2.89167 3.175 3.675C2.39167 4.45833 2 5.4 2 6.5Z" fill="#3D52A0" fill-opacity="0.87"/>
</svg>
