<svg width="30" height="30" viewBox="0 0 30 30" fill="none" xmlns="http://www.w3.org/2000/svg">
<path d="M26.25 22.5V10.625C26.25 10.1277 26.0525 9.65081 25.7008 9.29917C25.3492 8.94754 24.8723 8.75 24.375 8.75H19.375C18.8777 8.75 18.4008 8.94754 18.0492 9.29917C17.6975 9.65081 17.5 10.1277 17.5 10.625V22.5M12.5 22.5V15H5C4.66848 15 4.35054 15.1317 4.11612 15.3661C3.8817 15.6005 3.75 15.9185 3.75 16.25V22.5" stroke="black" stroke-opacity="0.7" stroke-width="2.5" stroke-linecap="round" stroke-linejoin="round"/>
<path d="M5 15H26.25V17.5H3.75V16.25C3.75 15.9185 3.8817 15.6005 4.11612 15.3661C4.35054 15.1317 4.66848 15 5 15Z" stroke="black" stroke-opacity="0.7" stroke-width="2.5" stroke-linecap="round" stroke-linejoin="round"/>
</svg>
