<svg width="29" height="29" viewBox="0 0 29 29" fill="none" xmlns="http://www.w3.org/2000/svg">
<path d="M0.75 24.125C0.75 26.4625 2.5375 28.25 4.875 28.25H24.125C26.4625 28.25 28.25 26.4625 28.25 24.125V13.125H0.75V24.125ZM24.125 3.5H21.375V2.125C21.375 1.3 20.825 0.75 20 0.75C19.175 0.75 18.625 1.3 18.625 2.125V3.5H10.375V2.125C10.375 1.3 9.825 0.75 9 0.75C8.175 0.75 7.625 1.3 7.625 2.125V3.5H4.875C2.5375 3.5 0.75 5.2875 0.75 7.625V10.375H28.25V7.625C28.25 5.2875 26.4625 3.5 24.125 3.5Z" fill="black" fill-opacity="0.95"/>
</svg>
