<svg width="18" height="17" viewBox="0 0 18 17" fill="none" xmlns="http://www.w3.org/2000/svg">
<path d="M9.00024 14.97L4.70524 16.885C4.54485 16.9565 4.36844 16.9846 4.19376 16.9663C4.01908 16.9481 3.8523 16.8841 3.71018 16.7809C3.56806 16.6777 3.45563 16.5389 3.38419 16.3785C3.31275 16.2181 3.28483 16.0416 3.30324 15.867L3.79724 11.19L0.650237 7.69796C0.532852 7.56752 0.451857 7.40849 0.415388 7.23684C0.37892 7.06519 0.388261 6.88697 0.442474 6.72008C0.496687 6.55318 0.593863 6.40349 0.724241 6.28604C0.854619 6.16859 1.01361 6.08751 1.18524 6.05096L5.78524 5.07496L8.13424 0.999956C8.22201 0.847949 8.34825 0.721722 8.50026 0.633962C8.65227 0.546202 8.82471 0.5 9.00024 0.5C9.17577 0.5 9.3482 0.546202 9.50022 0.633962C9.65223 0.721722 9.77847 0.847949 9.86624 0.999956L12.2162 5.07396L16.8162 6.04996C16.9879 6.08651 17.1469 6.16759 17.2772 6.28504C17.4076 6.40249 17.5048 6.55218 17.559 6.71907C17.6132 6.88597 17.6226 7.06419 17.5861 7.23584C17.5496 7.40749 17.4686 7.56652 17.3512 7.69696L14.2032 11.191L14.6972 15.867C14.7156 16.0416 14.6877 16.2181 14.6163 16.3785C14.5448 16.5389 14.4324 16.6777 14.2903 16.7809C14.1482 16.8841 13.9814 16.9481 13.8067 16.9663C13.632 16.9846 13.4556 16.9565 13.2952 16.885L9.00024 14.97Z" fill="#3D52A0"/>
</svg>
