<svg width="10" height="10" viewBox="0 0 10 10" fill="none" xmlns="http://www.w3.org/2000/svg">
<path fill-rule="evenodd" clip-rule="evenodd" d="M4.99971 6.6002C5.42405 6.6002 5.83102 6.43162 6.13108 6.13157C6.43114 5.83151 6.59971 5.42454 6.59971 5.0002C6.59971 4.57585 6.43114 4.16888 6.13108 3.86882C5.83102 3.56877 5.42405 3.4002 4.99971 3.4002C4.57536 3.4002 4.16839 3.56877 3.86834 3.86882C3.56828 4.16888 3.39971 4.57585 3.39971 5.0002C3.39971 5.42454 3.56828 5.83151 3.86834 6.13157C4.16839 6.43162 4.57536 6.6002 4.99971 6.6002ZM4.99971 9.8002C6.27275 9.8002 7.49365 9.29448 8.39382 8.39431C9.29399 7.49413 9.79971 6.27323 9.79971 5.0002C9.79971 3.72716 9.29399 2.50626 8.39382 1.60608C7.49365 0.705908 6.27275 0.200195 4.99971 0.200195C3.72667 0.200195 2.50577 0.705908 1.60559 1.60608C0.70542 2.50626 0.199707 3.72716 0.199707 5.0002C0.199707 6.27323 0.70542 7.49413 1.60559 8.39431C2.50577 9.29448 3.72667 9.8002 4.99971 9.8002Z" fill="black" fill-opacity="0.7"/>
</svg>
