<svg width="39" height="36" viewBox="0 0 39 36" fill="none" xmlns="http://www.w3.org/2000/svg">
<path d="M18.0795 31.1301L18.0768 31.1276C13.2107 26.7151 9.32725 23.184 6.63775 19.8935C3.96946 16.6291 2.67857 13.8378 2.67857 10.9375C2.67857 6.21117 6.35032 2.55357 11.0625 2.55357C13.742 2.55357 16.3456 3.81092 18.0365 5.78105L19.5 7.48619L20.9635 5.78105C22.6544 3.81092 25.258 2.55357 27.9375 2.55357C32.6497 2.55357 36.3214 6.21117 36.3214 10.9375C36.3214 13.8378 35.0305 16.6291 32.3622 19.8935C29.6728 23.184 25.7893 26.7151 20.9232 31.1276L20.9205 31.1301L19.5 32.4232L18.0795 31.1301Z" fill="#DD0F0F" stroke="#DD0F0F" stroke-width="3.85714"/>
</svg>
