<svg width="24" height="24" viewBox="0 0 24 24" fill="none" xmlns="http://www.w3.org/2000/svg">
<path d="M22.8875 5.8002C22.4625 6.2252 22.05 6.6377 22.0375 7.0502C22 7.4502 22.425 7.8627 22.825 8.2502C23.425 8.8752 24.0125 9.43769 23.9875 10.0502C23.9625 10.6627 23.325 11.3002 22.6875 11.9252L17.525 17.1002L15.75 15.3252L21.0625 10.0252L19.8625 8.8252L18.0875 10.5877L13.4 5.9002L18.2 1.1127C18.6875 0.625195 19.5 0.625195 19.9625 1.1127L22.8875 4.0377C23.375 4.5002 23.375 5.3127 22.8875 5.8002ZM0.75 18.5627L12.7 6.60019L17.3875 11.2877L5.4375 23.2502H0.75V18.5627Z" fill="black" fill-opacity="0.7"/>
</svg>
