<svg width="28" height="28" viewBox="0 0 28 28" fill="none" xmlns="http://www.w3.org/2000/svg">
<path fill-rule="evenodd" clip-rule="evenodd" d="M17 0.5C17.7569 0.499761 18.4858 0.78561 19.0408 1.30025C19.5958 1.81488 19.9357 2.52027 19.9925 3.275L20 3.5V5.0825L25.4615 6.5465C26.1928 6.74223 26.823 7.2072 27.2259 7.84816C27.6287 8.48912 27.7743 9.25868 27.6335 10.0025L27.5825 10.22L23.7005 24.71C23.5045 25.441 23.0394 26.0709 22.3984 26.4734C21.7575 26.876 20.9881 27.0214 20.2445 26.8805L20.027 26.831L19.1465 26.5955C18.6635 27.0905 18.008 27.4205 17.2775 27.488L17 27.5H3.5C2.74314 27.5002 2.01415 27.2144 1.45918 26.6998C0.904206 26.1851 0.564265 25.4797 0.5075 24.725L0.5 24.5V3.5C0.499761 2.74314 0.78561 2.01415 1.30025 1.45918C1.81488 0.904206 2.52027 0.564265 3.275 0.5075L3.5 0.5H17ZM17 3.5H3.5V24.5H17V3.5ZM20 8.189V23.7185L20.8025 23.933L24.686 9.443L20 8.189Z" fill="black" fill-opacity="0.7"/>
</svg>
