<svg width="28" height="24" viewBox="0 0 28 24" fill="none" xmlns="http://www.w3.org/2000/svg">
<path d="M8.6665 24V21.3333H3.33317C2.59984 21.3333 1.97228 21.0724 1.4505 20.5507C0.928726 20.0289 0.667393 19.4009 0.666504 18.6667V2.66667C0.666504 1.93333 0.927837 1.30578 1.4505 0.784C1.97317 0.262222 2.60073 0.000888889 3.33317 0H24.6665C25.3998 0 26.0278 0.261333 26.5505 0.784C27.0732 1.30667 27.3341 1.93422 27.3332 2.66667V18.6667C27.3332 19.4 27.0723 20.028 26.5505 20.5507C26.0287 21.0733 25.4007 21.3342 24.6665 21.3333H19.3332V24H8.6665Z" fill="black" fill-opacity="0.7"/>
</svg>
