<svg width="25" height="19" viewBox="0 0 25 19" fill="none" xmlns="http://www.w3.org/2000/svg">
<path d="M13.0625 2.875C13.0625 1.62625 14.0638 0.625 15.3125 0.625H19.25C20.4875 0.625 21.5 1.6375 21.5 2.875V5.305C20.195 5.76625 19.25 7.00375 19.25 8.46625V10.75H13.0625V2.875ZM5.75 8.455V10.75H11.9375V2.875C11.9375 1.62625 10.9362 0.625 9.6875 0.625H5.75C4.5125 0.625 3.5 1.6375 3.5 2.875V5.29375C4.805 5.755 5.75 7.00375 5.75 8.455ZM22.2425 6.28375C21.14 6.46375 20.375 7.51 20.375 8.635V11.875H4.625V8.5C4.625 7.90326 4.38795 7.33097 3.96599 6.90901C3.54403 6.48705 2.97174 6.25 2.375 6.25C1.77826 6.25 1.20597 6.48705 0.78401 6.90901C0.362053 7.33097 0.125 7.90326 0.125 8.5V14.125C0.125 15.3625 1.1375 16.375 2.375 16.375V18.625H4.625V16.375H20.375V18.625H22.625V16.375C23.8625 16.375 24.875 15.3625 24.875 14.125V8.5C24.875 7.13875 23.6488 6.0475 22.2425 6.28375Z" fill="black" fill-opacity="0.7"/>
</svg>
