<svg width="87" height="24" viewBox="0 0 87 24" fill="none" xmlns="http://www.w3.org/2000/svg">
<path d="M0.688 12.416C0.688 11.328 0.933333 10.352 1.424 9.488C1.91467 8.61333 2.58133 7.93067 3.424 7.44C4.27733 6.94933 5.22133 6.704 6.256 6.704C7.472 6.704 8.53333 6.99733 9.44 7.584C10.3467 8.17067 11.008 9.00267 11.424 10.08H9.68C9.37067 9.408 8.92267 8.89067 8.336 8.528C7.76 8.16533 7.06667 7.984 6.256 7.984C5.47733 7.984 4.77867 8.16533 4.16 8.528C3.54133 8.89067 3.056 9.408 2.704 10.08C2.352 10.7413 2.176 11.52 2.176 12.416C2.176 13.3013 2.352 14.08 2.704 14.752C3.056 15.4133 3.54133 15.9253 4.16 16.288C4.77867 16.6507 5.47733 16.832 6.256 16.832C7.06667 16.832 7.76 16.656 8.336 16.304C8.92267 15.9413 9.37067 15.424 9.68 14.752H11.424C11.008 15.8187 10.3467 16.6453 9.44 17.232C8.53333 17.808 7.472 18.096 6.256 18.096C5.22133 18.096 4.27733 17.856 3.424 17.376C2.58133 16.8853 1.91467 16.208 1.424 15.344C0.933333 14.48 0.688 13.504 0.688 12.416ZM15.0474 6.16V18H13.5914V6.16H15.0474ZM25.5289 13.28C25.5289 13.5573 25.5129 13.8507 25.4809 14.16H18.4729C18.5262 15.024 18.8195 15.7013 19.3529 16.192C19.8969 16.672 20.5529 16.912 21.3209 16.912C21.9502 16.912 22.4729 16.768 22.8889 16.48C23.3155 16.1813 23.6142 15.7867 23.7849 15.296H25.3529C25.1182 16.1387 24.6489 16.8267 23.9449 17.36C23.2409 17.8827 22.3662 18.144 21.3209 18.144C20.4889 18.144 19.7422 17.9573 19.0809 17.584C18.4302 17.2107 17.9182 16.6827 17.5449 16C17.1715 15.3067 16.9849 14.5067 16.9849 13.6C16.9849 12.6933 17.1662 11.8987 17.5289 11.216C17.8915 10.5333 18.3982 10.0107 19.0489 9.648C19.7102 9.27467 20.4675 9.088 21.3209 9.088C22.1529 9.088 22.8889 9.26933 23.5289 9.632C24.1689 9.99467 24.6595 10.496 25.0009 11.136C25.3529 11.7653 25.5289 12.48 25.5289 13.28ZM24.0249 12.976C24.0249 12.4213 23.9022 11.9467 23.6569 11.552C23.4115 11.1467 23.0755 10.8427 22.6489 10.64C22.2329 10.4267 21.7689 10.32 21.2569 10.32C20.5209 10.32 19.8915 10.5547 19.3689 11.024C18.8569 11.4933 18.5635 12.144 18.4889 12.976H24.0249ZM26.9068 13.584C26.9068 12.688 27.0881 11.904 27.4508 11.232C27.8134 10.5493 28.3094 10.0213 28.9388 9.648C29.5788 9.27467 30.2881 9.088 31.0668 9.088C31.8348 9.088 32.5014 9.25333 33.0668 9.584C33.6321 9.91467 34.0534 10.3307 34.3308 10.832V9.232H35.8028V18H34.3308V16.368C34.0428 16.88 33.6108 17.3067 33.0348 17.648C32.4694 17.9787 31.8081 18.144 31.0508 18.144C30.2721 18.144 29.5681 17.952 28.9388 17.568C28.3094 17.184 27.8134 16.6453 27.4508 15.952C27.0881 15.2587 26.9068 14.4693 26.9068 13.584ZM34.3308 13.6C34.3308 12.9387 34.1974 12.3627 33.9308 11.872C33.6641 11.3813 33.3014 11.008 32.8428 10.752C32.3948 10.4853 31.8988 10.352 31.3548 10.352C30.8108 10.352 30.3148 10.48 29.8668 10.736C29.4188 10.992 29.0614 11.3653 28.7948 11.856C28.5281 12.3467 28.3948 12.9227 28.3948 13.584C28.3948 14.256 28.5281 14.8427 28.7948 15.344C29.0614 15.8347 29.4188 16.2133 29.8668 16.48C30.3148 16.736 30.8108 16.864 31.3548 16.864C31.8988 16.864 32.3948 16.736 32.8428 16.48C33.3014 16.2133 33.6641 15.8347 33.9308 15.344C34.1974 14.8427 34.3308 14.2613 34.3308 13.6ZM39.7193 10.656C39.9753 10.1547 40.3379 9.76533 40.8073 9.488C41.2873 9.21067 41.8686 9.072 42.5513 9.072V10.576H42.1673C40.5353 10.576 39.7193 11.4613 39.7193 13.232V18H38.2633V9.232H39.7193V10.656ZM47.9536 13.584C47.9536 12.688 48.135 11.904 48.4976 11.232C48.8603 10.5493 49.3563 10.0213 49.9856 9.648C50.6256 9.27467 51.335 9.088 52.1136 9.088C52.8816 9.088 53.5483 9.25333 54.1136 9.584C54.679 9.91467 55.1003 10.3307 55.3776 10.832V9.232H56.8496V18H55.3776V16.368C55.0896 16.88 54.6576 17.3067 54.0816 17.648C53.5163 17.9787 52.855 18.144 52.0976 18.144C51.319 18.144 50.615 17.952 49.9856 17.568C49.3563 17.184 48.8603 16.6453 48.4976 15.952C48.135 15.2587 47.9536 14.4693 47.9536 13.584ZM55.3776 13.6C55.3776 12.9387 55.2443 12.3627 54.9776 11.872C54.711 11.3813 54.3483 11.008 53.8896 10.752C53.4416 10.4853 52.9456 10.352 52.4016 10.352C51.8576 10.352 51.3616 10.48 50.9136 10.736C50.4656 10.992 50.1083 11.3653 49.8416 11.856C49.575 12.3467 49.4416 12.9227 49.4416 13.584C49.4416 14.256 49.575 14.8427 49.8416 15.344C50.1083 15.8347 50.4656 16.2133 50.9136 16.48C51.3616 16.736 51.8576 16.864 52.4016 16.864C52.9456 16.864 53.4416 16.736 53.8896 16.48C54.3483 16.2133 54.711 15.8347 54.9776 15.344C55.2443 14.8427 55.3776 14.2613 55.3776 13.6ZM60.7661 6.16V18H59.3101V6.16H60.7661ZM64.7036 6.16V18H63.2476V6.16H64.7036Z" fill="#3D52A0"/>
<path d="M86.7071 12.7071C87.0976 12.3166 87.0976 11.6834 86.7071 11.2929L80.3431 4.92893C79.9526 4.53841 79.3195 4.53841 78.9289 4.92893C78.5384 5.31946 78.5384 5.95262 78.9289 6.34315L84.5858 12L78.9289 17.6569C78.5384 18.0474 78.5384 18.6805 78.9289 19.0711C79.3195 19.4616 79.9526 19.4616 80.3431 19.0711L86.7071 12.7071ZM71 13H86V11H71V13Z" fill="#3D52A0"/>
</svg>
