<svg width="24" height="22" viewBox="0 0 24 22" fill="none" xmlns="http://www.w3.org/2000/svg">
<path d="M0.75 13.8501C0.948912 13.8501 1.13968 13.9291 1.28033 14.0698C1.42098 14.2104 1.5 14.4012 1.5 14.6001V18.3501C1.5 18.7479 1.65804 19.1295 1.93934 19.4108C2.22064 19.6921 2.60218 19.8501 3 19.8501H21C21.3978 19.8501 21.7794 19.6921 22.0607 19.4108C22.342 19.1295 22.5 18.7479 22.5 18.3501V14.6001C22.5 14.4012 22.579 14.2104 22.7197 14.0698C22.8603 13.9291 23.0511 13.8501 23.25 13.8501C23.4489 13.8501 23.6397 13.9291 23.7803 14.0698C23.921 14.2104 24 14.4012 24 14.6001V18.3501C24 19.1457 23.6839 19.9088 23.1213 20.4714C22.5587 21.034 21.7956 21.3501 21 21.3501H3C2.20435 21.3501 1.44129 21.034 0.87868 20.4714C0.316071 19.9088 0 19.1457 0 18.3501V14.6001C0 14.4012 0.0790176 14.2104 0.21967 14.0698C0.360322 13.9291 0.551088 13.8501 0.75 13.8501Z" fill="white"/>
<path d="M11.4699 16.781C11.5396 16.8508 11.6224 16.9063 11.7135 16.9441C11.8046 16.9819 11.9023 17.0013 12.0009 17.0013C12.0996 17.0013 12.1973 16.9819 12.2884 16.9441C12.3795 16.9063 12.4623 16.8508 12.5319 16.781L17.0319 12.281C17.1728 12.1402 17.2519 11.9492 17.2519 11.75C17.2519 11.5508 17.1728 11.3598 17.0319 11.219C16.8911 11.0782 16.7001 10.9991 16.5009 10.9991C16.3018 10.9991 16.1108 11.0782 15.9699 11.219L12.7509 14.4395V1.25C12.7509 1.05109 12.6719 0.860322 12.5313 0.71967C12.3906 0.579018 12.1999 0.5 12.0009 0.5C11.802 0.5 11.6113 0.579018 11.4706 0.71967C11.33 0.860322 11.2509 1.05109 11.2509 1.25V14.4395L8.03195 11.219C7.89112 11.0782 7.70011 10.9991 7.50095 10.9991C7.30178 10.9991 7.11078 11.0782 6.96995 11.219C6.82912 11.3598 6.75 11.5508 6.75 11.75C6.75 11.9492 6.82912 12.1402 6.96995 12.281L11.4699 16.781Z" fill="white"/>
</svg>
