<svg width="141" height="44" viewBox="0 0 141 44" fill="none" xmlns="http://www.w3.org/2000/svg">
<path d="M58.2148 34H44.6445V32.0547L55.2148 18.8359H45.4414V16.7734H58.2148V18.7891L47.5977 31.9375H58.2148V34ZM73.5664 34H60.8516V16.7734H73.4023V18.8359H63.1836V24.1094H72.6055V26.1719H63.1836V31.9375H73.5664V34ZM87.8633 16.7734H90.1133V34H87.5234L78.7344 20.0781H78.6875V34H76.4609V16.7734H79.1914L87.8164 30.6836H87.8633V16.7734ZM96.3477 32.0078H100.859C102.422 32.0078 103.645 31.4102 104.527 30.2148C105.41 29.0117 105.852 27.3711 105.852 25.293C105.852 23.2383 105.406 21.6406 104.516 20.5C103.625 19.3594 102.34 18.7812 100.66 18.7656H96.3477V32.0078ZM94.0156 16.7734H101C103.258 16.7734 105.023 17.5508 106.297 19.1055C107.578 20.6523 108.219 22.6641 108.219 25.1406C108.219 27.7969 107.578 29.9375 106.297 31.5625C105.023 33.1875 103.227 34 100.906 34H94.0156V16.7734ZM124.027 34H111.312V16.7734H123.863V18.8359H113.645V24.1094H123.066V26.1719H113.645V31.9375H124.027V34ZM138.324 16.7734H140.574V34H137.984L129.195 20.0781H129.148V34H126.922V16.7734H129.652L138.277 30.6836H138.324V16.7734Z" fill="#002855"/>
<path d="M36.7978 30.7217H7.22949V33.6111H36.7978V30.7217Z" fill="#002855"/>
<path d="M22.0086 10.3894L6.31348 18.0444L7.58011 20.6414L23.2752 12.9864L22.0086 10.3894Z" fill="#002855"/>
<path d="M33.8965 17.8435V25.5435H36.7891V17.8435H33.8965Z" fill="#002855"/>
<path d="M7.20996 17.8435L7.20996 25.5435H10.1026V17.8435H7.20996Z" fill="#002855"/>
<path d="M37.7045 18.0449L22.0088 10.3896L20.7422 12.9866L36.4378 20.6419L37.7045 18.0449Z" fill="#002855"/>
<path d="M9.41458 27.5674H7.16113V26.4826H11.584V27.5674L9.2491 28.8176H11.584V29.9048H7.16113V28.8176L9.41458 27.5674ZM12.2079 29.9048V26.4826H16.2132V27.3585H13.5422V27.7965H16.2132V28.5884H13.5422V29.0264H16.2132V29.9048H12.2079ZM20.2618 28.2905V26.4775H21.5986V29.8998H20.0963L18.2579 27.8092V29.8998H16.9236V26.4775H18.7595L20.2618 28.2905ZM25.716 28.1937C25.716 27.8474 25.5199 27.5674 25.1736 27.5674H23.7121V28.8201H25.1736C25.5199 28.8201 25.716 28.5375 25.716 28.1937ZM22.3778 26.4826H25.4232C26.3627 26.4699 27.0605 27.2592 27.0528 28.1937C27.0605 29.1231 26.3627 29.9176 25.4232 29.9048H22.3778V26.4826ZM27.45 29.9048V26.4826H31.4553V27.3585H28.7843V27.7965H31.4553V28.5884H28.7843V29.0264H31.4553V29.9048H27.45ZM35.504 28.2905V26.4775H36.8408V29.8998H35.3384L33.5 27.8092V29.8998H32.1658V26.4775H34.0016L35.504 28.2905Z" fill="#002855"/>
</svg>
