<svg width="59" height="59" viewBox="0 0 59 59" fill="none" xmlns="http://www.w3.org/2000/svg">
<path d="M50.2864 8.71363L56.4667 9.94895C56.7986 10.0153 57.0714 10.2587 57.1673 10.5869C57.2157 10.7463 57.2201 10.9159 57.1798 11.0775C57.1395 11.2392 57.0562 11.387 56.9387 11.5051L51.8758 16.5717C51.2691 17.175 50.4487 17.5142 49.5932 17.5157H45.3931L34.8469 28.0656C35.0481 28.8253 35.0851 29.6192 34.9554 30.3943C34.8258 31.1695 34.5324 31.9081 34.0949 32.5609C33.6574 33.2138 33.0858 33.7659 32.4182 34.1805C31.7506 34.5952 31.0022 34.8628 30.2231 34.9655C29.4439 35.0683 28.6518 35.0038 27.8995 34.7764C27.1473 34.549 26.4521 34.1639 25.8603 33.6468C25.2685 33.1296 24.7937 32.4923 24.4676 31.7773C24.1414 31.0623 23.9714 30.286 23.9688 29.5001C23.9686 28.6513 24.1637 27.8139 24.5391 27.0526C24.9145 26.2914 25.46 25.6267 26.1335 25.1101C26.807 24.5935 27.5903 24.2389 28.4228 24.0736C29.2553 23.9083 30.1147 23.9368 30.9344 24.1569L41.4844 13.6033V9.41057C41.4844 8.55507 41.8236 7.73276 42.4284 7.12801L47.495 2.06139C47.6131 1.94386 47.7608 1.86054 47.9225 1.82028C48.0842 1.78003 48.2538 1.78434 48.4132 1.83276C48.7414 1.92864 48.9848 2.20151 49.0511 2.53339L50.2864 8.71363Z" fill="#3D52A0"/>
<path d="M7.37481 29.4999C7.3786 32.6637 8.06085 35.7898 9.37553 38.6674C10.6902 41.5451 12.6068 44.1073 14.9959 46.1813C17.385 48.2552 20.1911 49.7927 23.2249 50.69C26.2588 51.5872 29.4497 51.8234 32.5826 51.3826C35.7155 50.9418 38.7174 49.8342 41.3858 48.1346C44.0542 46.435 46.3271 44.1828 48.0511 41.5301C49.7752 38.8774 50.9102 35.8858 51.3798 32.7571C51.8493 29.6284 51.6424 26.4354 50.773 23.3934C50.6509 23.038 50.6025 22.6615 50.6306 22.2868C50.6587 21.9121 50.7627 21.547 50.9364 21.2138C51.1101 20.8806 51.3498 20.5862 51.6409 20.3486C51.932 20.111 52.2684 19.9351 52.6296 19.8316C52.9909 19.7281 53.3694 19.6993 53.7421 19.7468C54.1149 19.7943 54.4741 19.9171 54.7979 20.1079C55.1216 20.2986 55.4032 20.5532 55.6254 20.8563C55.8476 21.1593 56.0058 21.5044 56.0904 21.8705C57.7738 27.7614 57.454 34.0444 55.1812 39.734C52.9084 45.4235 48.8112 50.1976 43.5323 53.3072C38.2534 56.4168 32.0915 57.686 26.0135 56.9158C19.9354 56.1455 14.285 53.3792 9.94868 49.0511C5.61714 44.7159 2.84795 39.0649 2.07589 32.9854C1.30383 26.9059 2.57263 20.7422 5.68307 15.4619C8.79351 10.1816 13.5695 6.0838 19.2611 3.81185C24.9527 1.5399 31.2377 1.22246 37.1292 2.90937C37.8308 3.11444 38.4226 3.58886 38.7754 4.22895C39.1282 4.86904 39.2132 5.62276 39.012 6.32538C38.8108 7.02801 38.3396 7.62241 37.7014 7.97869C37.0633 8.33496 36.31 8.42415 35.6063 8.22675C32.3118 7.28071 28.8425 7.11307 25.4721 7.73705C22.1018 8.36102 18.9224 9.75955 16.185 11.8223C13.4475 13.8851 11.2267 16.5557 9.69778 19.6234C8.16887 22.6912 7.37364 26.0723 7.37481 29.4999Z" fill="#3D52A0"/>
<path d="M18.4373 29.5C18.4375 31.5156 18.988 33.4928 20.0294 35.2185C21.0708 36.9441 22.5636 38.3527 24.3468 39.2923C26.1299 40.2319 28.1358 40.6668 30.1479 40.5501C32.1601 40.4335 34.1023 39.7696 35.7649 38.6303C37.4272 37.488 38.7456 35.9131 39.5775 34.0757C40.4094 32.2383 40.7232 30.2085 40.4849 28.2057C40.4204 27.7197 40.4867 27.2253 40.6768 26.7734C40.8669 26.3215 41.1741 25.9285 41.5666 25.6347C41.9591 25.341 42.4228 25.1572 42.91 25.1022C43.3972 25.0473 43.8902 25.1232 44.3383 25.3221C44.7863 25.5184 45.1742 25.8301 45.4625 26.2252C45.7508 26.6204 45.9291 27.0849 45.9792 27.5715C46.3799 30.9938 45.7052 34.456 44.0489 37.4776C42.3925 40.4991 39.8366 42.93 36.7359 44.433C33.6353 45.936 30.1436 46.4364 26.7456 45.8649C23.3476 45.2933 20.2118 43.6781 17.7734 41.2434C15.3351 38.8088 13.7151 35.6754 13.1384 32.2783C12.5617 28.8812 13.0568 25.3888 14.5551 22.2858C16.0533 19.1828 18.4804 16.6232 21.4994 14.9623C24.5184 13.3013 27.9796 12.6214 31.4026 13.0169C31.7691 13.0509 32.1251 13.1577 32.4498 13.3311C32.7745 13.5045 33.0613 13.741 33.2935 14.0267C33.5256 14.3123 33.6983 14.6415 33.8016 14.9948C33.9049 15.3481 33.9366 15.7185 33.8948 16.0842C33.8531 16.4499 33.7388 16.8036 33.5586 17.1246C33.3784 17.4456 33.1359 17.7273 32.8454 17.9534C32.5549 18.1794 32.2222 18.3452 31.8668 18.441C31.5114 18.5368 31.1404 18.5607 30.7757 18.5113C29.2257 18.3313 27.6551 18.4813 26.1672 18.9514C24.6792 19.4215 23.3076 20.201 22.1423 21.2388C20.977 22.2766 20.0445 23.5492 19.406 24.973C18.7674 26.3968 18.4373 27.9396 18.4373 29.5Z" fill="#3D52A0"/>
</svg>
