<svg width="20" height="20" viewBox="0 0 20 20" fill="none" xmlns="http://www.w3.org/2000/svg">
<path d="M1.95215 6.10306C1.95215 5.67583 2.11833 5.2661 2.41415 4.964C2.70996 4.6619 3.11117 4.49219 3.52951 4.49219H16.1484C16.5668 4.49219 16.968 4.6619 17.2638 4.964C17.5596 5.2661 17.7258 5.67583 17.7258 6.10306V14.1574C17.7258 14.5847 17.5596 14.9944 17.2638 15.2965C16.968 15.5986 16.5668 15.7683 16.1484 15.7683H3.52951C3.11117 15.7683 2.70996 15.5986 2.41415 15.2965C2.11833 14.9944 1.95215 14.5847 1.95215 14.1574V6.10306Z" stroke="#CDCBFF" stroke-width="1.41667" stroke-linecap="round" stroke-linejoin="round"/>
<path d="M9.83871 12.5455C11.1454 12.5455 12.2048 11.4637 12.2048 10.1292C12.2048 8.79471 11.1454 7.71289 9.83871 7.71289C8.53197 7.71289 7.47266 8.79471 7.47266 10.1292C7.47266 11.4637 8.53197 12.5455 9.83871 12.5455Z" stroke="#CDCBFF" stroke-width="1.41667" stroke-linecap="round" stroke-linejoin="round"/>
<path d="M1.95215 7.71394C2.78884 7.71394 3.59125 7.37451 4.18288 6.77031C4.77451 6.16612 5.10688 5.34665 5.10688 4.49219M14.5711 15.7683C14.5711 14.9139 14.9035 14.0944 15.4951 13.4902C16.0867 12.886 16.8891 12.5466 17.7258 12.5466" stroke="#CDCBFF" stroke-width="1.41667" stroke-linecap="round" stroke-linejoin="round"/>
</svg>
