<svg width="54" height="54" viewBox="0 0 54 54" fill="none" xmlns="http://www.w3.org/2000/svg">
<path d="M47.7509 16.1898V44.7455C47.7509 46.0586 47.7351 47.377 47.7509 48.69V48.7428L50.3876 46.1061H5.52119C4.91475 46.1061 4.3083 46.1008 3.70186 46.1061H3.62275L6.25947 48.7428V20.1871C6.25947 18.874 6.27529 17.5557 6.25947 16.2426V16.1898L3.62275 18.8266H48.4892C49.0956 18.8266 49.7021 18.8318 50.3085 18.8266H50.3876C51.0626 18.8266 51.7745 18.5312 52.2544 18.0566C52.7132 17.5979 53.056 16.849 53.0243 16.1898C52.9927 15.5096 52.7712 14.8029 52.2544 14.323C51.7376 13.8484 51.1048 13.5531 50.3876 13.5531H5.52119C4.91475 13.5531 4.3083 13.5479 3.70186 13.5531H3.62275C2.19893 13.5531 0.986035 14.7607 0.986035 16.1898V44.7455C0.986035 46.0586 0.970215 47.377 0.986035 48.69V48.7428C0.986035 50.1666 2.19365 51.3795 3.62275 51.3795H48.4892C49.0956 51.3795 49.7021 51.3848 50.3085 51.3795H50.3876C51.8114 51.3795 53.0243 50.1719 53.0243 48.7428V20.1871C53.0243 18.874 53.0401 17.5557 53.0243 16.2426V16.1898C53.0243 15.5148 52.729 14.8029 52.2544 14.323C51.7956 13.8643 51.0468 13.5215 50.3876 13.5531C49.7073 13.5848 49.0007 13.8063 48.5208 14.323C48.0515 14.8451 47.7509 15.4779 47.7509 16.1898Z" fill="#3D52A0"/>
<path d="M50.3877 13.5584H5.5213C4.91485 13.5584 4.30841 13.5531 3.70196 13.5584H3.62286C4.24513 15.0613 4.86739 16.559 5.48966 18.0619L8.97013 14.3599C10.8211 12.3929 12.6721 10.4312 14.5178 8.46423C14.9397 8.01599 15.3668 7.56248 15.7887 7.11423C15.1664 7.37263 14.5442 7.63103 13.9219 7.88416H36.8824C37.9371 7.88416 38.9918 7.89998 40.0465 7.88416H40.094C39.4717 7.62576 38.8494 7.36736 38.2272 7.11423L41.7076 10.8162C43.5586 12.7832 45.4096 14.7449 47.2553 16.7119C47.6772 17.1601 48.1043 17.6136 48.5262 18.0619C48.9797 18.547 49.7338 18.8318 50.393 18.8318C51.0416 18.8318 51.8115 18.547 52.2598 18.0619C52.7186 17.5609 53.0613 16.9017 53.0297 16.1951C52.9981 15.4832 52.7502 14.8556 52.2598 14.3283C51.2104 13.2156 50.1662 12.1029 49.1168 10.9902C47.3291 9.09177 45.5467 7.19334 43.759 5.30017C43.2264 4.73064 42.6885 4.16638 42.1559 3.59685C41.6127 3.01677 40.9377 2.62654 40.0887 2.61072H14.7234C14.2488 2.61072 13.674 2.55798 13.2205 2.70564C12.3135 3.00095 11.8125 3.64431 11.1955 4.29822C9.53439 6.05955 7.87853 7.82087 6.21739 9.58748C4.80411 11.0904 3.39083 12.5881 1.97755 14.091C1.90372 14.1701 1.82462 14.2545 1.75079 14.3336C1.01778 15.114 0.785753 16.2215 1.20763 17.2129C1.61368 18.1674 2.55763 18.8318 3.61759 18.8318H48.484C49.0904 18.8318 49.6969 18.8371 50.3033 18.8318H50.3824C51.0574 18.8318 51.7693 18.5365 52.2492 18.0619C52.708 17.6031 53.0508 16.8543 53.0192 16.1951C52.9875 15.5148 52.766 14.8082 52.2492 14.3283C51.7377 13.859 51.1049 13.5584 50.3877 13.5584Z" fill="#3D52A0"/>
<path d="M30.1853 16.1899V30.6497C31.5089 29.8903 32.8325 29.1309 34.1509 28.3716C32.4106 27.4593 30.6704 26.5469 28.9249 25.6346C28.7034 25.5186 28.4819 25.3973 28.2552 25.2813C27.8438 25.0757 27.3956 24.8964 26.921 24.9175C26.4358 24.9385 26.0245 25.0546 25.5868 25.276C25.5657 25.2866 25.5446 25.2971 25.5235 25.313C25.4075 25.3762 25.2862 25.4343 25.1702 25.4975C24.1577 26.0301 23.1452 26.5575 22.1327 27.0901C21.3206 27.5173 20.5085 27.9444 19.6911 28.3663C21.0147 29.1257 22.3384 29.885 23.6567 30.6444V16.1846L21.02 18.8214H32.8167C33.4917 18.8214 34.2036 18.526 34.6835 18.0514C35.1423 17.5926 35.4851 16.8438 35.4534 16.1846C35.4218 15.5044 35.2003 14.7977 34.6835 14.3178C34.1667 13.8432 33.5339 13.5479 32.8167 13.5479H21.02C19.5962 13.5479 18.3833 14.7555 18.3833 16.1846V30.6444C18.3833 31.5725 18.8896 32.4532 19.6911 32.9225C20.5349 33.4182 21.5052 33.3655 22.3542 32.9225C24.0733 32.0208 25.7978 31.119 27.5169 30.2173C27.7647 30.0907 28.0073 29.9589 28.2552 29.8323H25.5921C27.3112 30.7341 29.0356 31.6358 30.7548 32.5376C31.0026 32.6641 31.2452 32.796 31.4931 32.9225C32.3368 33.3655 33.3124 33.4182 34.1562 32.9225C34.9577 32.4532 35.464 31.5778 35.464 30.6444V16.1846C35.464 15.5096 35.1687 14.7977 34.694 14.3178C34.2353 13.8591 33.4864 13.5163 32.8272 13.5479C32.147 13.5796 31.4403 13.801 30.9604 14.3178C30.4858 14.8452 30.1853 15.478 30.1853 16.1899Z" fill="#3D52A0"/>
</svg>
