<svg width="70" height="70" viewBox="0 0 70 70" fill="none" xmlns="http://www.w3.org/2000/svg">
<path d="M23.2064 55.9149C21.7428 56.4982 20.3746 55.9679 19.7488 55.6073C18.6988 55.0027 17.9776 53.9633 17.7655 52.7755L17.0443 48.7133L10.0761 58.4073C9.43975 59.1497 10.0019 60.8573 11.5397 60.5285L20.1625 58.227L22.4852 66.8497C22.6549 67.7512 24.2988 68.5149 25.0519 67.0618L29.9731 56.1482L28.2443 54.1012L23.2064 55.9149ZM62.3322 58.4073L54.3034 47.2497L52.8397 47.5149L51.8958 52.7755C51.6837 53.974 50.9519 55.0027 49.9019 55.6179C49.2761 55.9785 48.1837 56.477 46.4549 55.9255L41.5231 54.1437L47.3564 67.0618C47.6003 67.8573 49.2973 68.4936 49.9231 66.8497L52.2246 58.227L60.8473 60.5285C62.5973 60.7512 62.8625 59.0967 62.3322 58.4073ZM34.8413 15.8027C27.2897 15.8027 21.1382 21.9543 21.1382 29.5058C21.1382 37.0573 27.2897 43.2088 34.8413 43.2088C42.3928 43.2088 48.5443 37.0573 48.5443 29.5058C48.5443 21.9436 42.3928 15.8027 34.8413 15.8027ZM40.5473 37.4815L34.8413 33.3346L29.1352 37.4815L31.32 30.7679L25.614 26.6209H32.667L34.8519 19.9073L37.0367 26.6209H44.0897L38.3837 30.7679L40.5473 37.4815Z" fill="#3D52A0"/>
<path d="M49.2122 52.2881L50.4849 45.1396L57.6228 43.8668C58.938 43.432 58.8107 42.435 58.6728 42.0532L56.2122 35.2335L61.7592 30.5456C62.6607 29.5062 62.0667 28.7108 61.7592 28.4562L56.2122 23.7684L58.6728 16.938C58.8107 16.5562 58.8849 15.4532 57.6228 15.1244L50.4849 13.8517L49.2122 6.7032C49.138 6.31077 48.5334 5.28198 47.3986 5.6532L40.5683 8.1138L35.8804 2.56683C35.3607 1.95168 34.3107 1.95168 33.791 2.56683L29.1031 8.1138L22.2728 5.6532C21.6683 5.41986 20.6607 5.68502 20.4592 6.7032L19.1864 13.8517L12.0379 15.1244C10.9137 15.3577 10.7652 16.4608 10.9879 16.938L13.4486 23.7684L7.90158 28.4562C7.04249 29.3047 7.47734 30.2381 7.90158 30.5456L13.4486 35.2229L10.9879 42.0532C10.8501 42.435 10.7334 43.5168 12.0379 43.8668L19.1864 45.1396L20.4592 52.2881C20.788 53.529 21.891 53.4759 22.2728 53.3381L29.1031 50.8775L33.791 56.4244C34.0455 56.732 34.9152 57.3365 35.8804 56.4244L40.5683 50.8775L47.3986 53.3381C48.7137 53.6456 49.138 52.6911 49.2122 52.2881ZM34.841 45.9456C25.7728 45.9456 18.4016 38.5744 18.4016 29.5062C18.4016 20.438 25.7728 13.0668 34.841 13.0668C43.9092 13.0668 51.2804 20.438 51.2804 29.5062C51.2804 38.5744 43.9092 45.9456 34.841 45.9456Z" fill="#3D52A0"/>
</svg>
