<svg width="67" height="67" viewBox="0 0 67 67" fill="none" xmlns="http://www.w3.org/2000/svg">
<path d="M26.1 64.5L30.1 53.5C29 53.3 28 53 26.9 52.6L22.8 63.6C23.9 64 25 64.3 26.1 64.6V64.5ZM35.9 53.6C33.9 53.8 33 53.7 32.3 53.7L28.1 65C29.3 65.2 30.4 65.3 31.6 65.4C31.7 65 31.4 66 35.9 53.6ZM41.7 53.6L41.1 52.3C40.2 52.7 39.3 53 38.3 53.2L33.8 65.5C35.1 65.5 36.4 65.4 37.6 65.2C37.5 64.7 37.4 65.3 41.7 53.6ZM22 50.2L18 61.3C18 61.4 17.9 61.4 17.9 61.5C18.9 62.1 19.9 62.6 21 63L25 51.8C23.9 51.4 23 50.8 22 50.2ZM14.7 41.1C13.8 38.8 13.2 36.2 13.2 33.5C13.2 22.3 22.3 13.3 33.4 13.3C37.6 13.3 41.4 14.6 44.7 16.7L53.1 8.3C47.8 4 40.9 1.5 33.5 1.5C15.8 1.5 1.5 15.8 1.5 33.5C1.5 38 2.4 42.2 4 46C9.6 43.4 11.7 42.5 14.7 41.1ZM17.7 46.1L13.4 57.9C13.4 58 13.3 58.1 13.2 58.2C14.1 59 15.1 59.7 16.1 60.3L20.3 48.8C19.4 48 18.5 47.1 17.7 46.1ZM42.9 56.3L39.7 64.9C41.9 64.5 44 63.8 46 63L42.9 56.3ZM4.9 47.9C5.7 49.4 6.5 50.8 7.5 52.2L9.9 45.6L4.9 47.9Z" fill="#3D52A0"/>
<path d="M33.4999 31.1996C35.5999 31.1996 37.2999 29.4996 37.2999 27.3996C37.2999 25.2996 35.5999 23.5996 33.4999 23.5996C31.3999 23.5996 29.6999 25.2996 29.6999 27.3996C29.6999 29.4996 31.3999 31.1996 33.4999 31.1996ZM16.2999 44.0996C16.0999 43.6996 15.7999 43.3996 15.5999 42.9996L12.5999 44.3996L9.1999 53.5996C9.1999 53.6996 8.9999 53.8996 8.8999 53.9996C9.6999 54.9996 10.5999 55.9996 11.5999 56.8996L16.2999 44.0996ZM54.7999 9.59961L46.3999 17.9996C50.8999 21.6996 53.6999 27.2996 53.6999 33.5996C53.6999 41.3996 49.2999 48.0996 42.8999 51.4996C42.8999 51.3996 43.3999 52.5996 47.8999 62.1996C58.2999 56.7996 65.4999 45.9996 65.4999 33.4996C65.4999 23.9996 61.3999 15.4996 54.7999 9.59961Z" fill="#3D52A0"/>
<path d="M51.6998 33.4998C51.6998 23.4998 43.4998 15.2998 33.4998 15.2998C23.4998 15.2998 15.2998 23.4998 15.2998 33.4998C15.2998 43.4998 23.4998 51.6998 33.4998 51.6998C43.4998 51.6998 51.6998 43.4998 51.6998 33.4998ZM33.4998 21.5998C36.6998 21.5998 39.2998 24.1998 39.2998 27.3998C39.2998 30.5998 36.6998 33.1998 33.4998 33.1998C30.2998 33.1998 27.6998 30.5998 27.6998 27.3998C27.6998 24.1998 30.2998 21.5998 33.4998 21.5998ZM42.4998 44.3998C42.4998 44.9998 41.9998 45.3998 41.4998 45.3998H25.4998C24.8998 45.3998 24.4998 44.8998 24.4998 44.3998V38.7998C24.4998 36.2998 26.4998 34.2998 28.9998 34.2998H37.9998C40.4998 34.2998 42.4998 36.2998 42.4998 38.7998V44.3998Z" fill="#3D52A0"/>
<path d="M38.0001 36.4004H29.0001C27.7001 36.4004 26.6001 37.5004 26.6001 38.8004V43.3004H40.5001V38.8004C40.4001 37.5004 39.4001 36.4004 38.0001 36.4004Z" fill="#3D52A0"/>
</svg>
