<svg width="25" height="24" viewBox="0 0 25 24" fill="none" xmlns="http://www.w3.org/2000/svg">
<g clip-path="url(#clip0_815_16826)">
<path fill-rule="evenodd" clip-rule="evenodd" d="M11.0003 2C9.64485 2.00012 8.30912 2.32436 7.10451 2.94569C5.8999 3.56702 4.86135 4.46742 4.07549 5.57175C3.28963 6.67609 2.77926 7.95235 2.58696 9.29404C2.39466 10.6357 2.526 12.004 2.97003 13.2846C3.41406 14.5652 4.1579 15.7211 5.13949 16.6557C6.12108 17.5904 7.31196 18.2768 8.61277 18.6576C9.91358 19.0384 11.2866 19.1026 12.6173 18.8449C13.948 18.5872 15.1977 18.015 16.2623 17.176L19.9143 20.828C20.1029 21.0102 20.3555 21.111 20.6177 21.1087C20.8799 21.1064 21.1307 21.0012 21.3161 20.8158C21.5015 20.6304 21.6066 20.3796 21.6089 20.1174C21.6112 19.8552 21.5104 19.6026 21.3283 19.414L17.6763 15.762C18.6642 14.5086 19.2794 13.0024 19.4514 11.4157C19.6233 9.82905 19.3451 8.22602 18.6485 6.79009C17.9519 5.35417 16.8651 4.14336 15.5126 3.29623C14.16 2.44911 12.5962 1.99989 11.0003 2ZM4.50025 10.5C4.50025 8.77609 5.18507 7.12279 6.40406 5.90381C7.62305 4.68482 9.27635 4 11.0003 4C12.7242 4 14.3775 4.68482 15.5964 5.90381C16.8154 7.12279 17.5003 8.77609 17.5003 10.5C17.5003 12.2239 16.8154 13.8772 15.5964 15.0962C14.3775 16.3152 12.7242 17 11.0003 17C9.27635 17 7.62305 16.3152 6.40406 15.0962C5.18507 13.8772 4.50025 12.2239 4.50025 10.5Z" fill="black"/>
</g>
<defs>
<clipPath id="clip0_815_16826">
<rect width="24" height="24" fill="white" transform="translate(0.5)"/>
</clipPath>
</defs>
</svg>
