<svg width="23" height="24" viewBox="0 0 23 24" fill="none" xmlns="http://www.w3.org/2000/svg">
<path d="M11.1536 2.22461C6.03739 2.22461 1.875 6.47543 1.875 11.7004V15.6262C1.875 16.5965 2.70729 17.3858 3.73073 17.3858H4.65859C4.90467 17.3858 5.14068 17.286 5.31469 17.1083C5.48869 16.9306 5.58645 16.6895 5.58645 16.4382V11.5649C5.58645 11.3135 5.48869 11.0725 5.31469 10.8948C5.14068 10.7171 4.90467 10.6173 4.65859 10.6173H3.81609C4.33198 6.95016 7.42176 4.11976 11.1536 4.11976C14.8855 4.11976 17.9753 6.95016 18.4912 10.6173H17.6487C17.4026 10.6173 17.1666 10.7171 16.9926 10.8948C16.8186 11.0725 16.7208 11.3135 16.7208 11.5649V17.3858C16.7208 18.431 15.8885 19.281 14.8651 19.281H13.0093V18.3334H9.2979V21.1761H14.8651C16.9119 21.1761 18.5765 19.4762 18.5765 17.3858C19.6 17.3858 20.4323 16.5965 20.4323 15.6262V11.7004C20.4323 6.47543 16.2699 2.22461 11.1536 2.22461Z" fill="#CDCBFF"/>
</svg>
