<svg width="29" height="29" viewBox="0 0 29 29" fill="none" xmlns="http://www.w3.org/2000/svg">
<path d="M25.3671 21.75H3.63293C2.91005 21.7491 2.21703 21.4615 1.70587 20.9504C1.19471 20.4392 0.907149 19.7462 0.90625 19.0233V7.25793C0.907149 6.53505 1.19471 5.84203 1.70587 5.33087C2.21703 4.81971 2.91005 4.53215 3.63293 4.53125H25.3671C26.09 4.53215 26.783 4.81971 27.2941 5.33087C27.8053 5.84203 28.0929 6.53505 28.0938 7.25793V19.0233C28.0929 19.7462 27.8053 20.4392 27.2941 20.9504C26.783 21.4615 26.09 21.7491 25.3671 21.75Z" fill="black"/>
<path d="M7.25 23.5625H21.75H7.25Z" fill="black"/>
<path d="M7.25 23.5625H21.75" stroke="black" stroke-width="1.8125" stroke-miterlimit="10" stroke-linecap="round"/>
</svg>
