<svg width="28" height="28" viewBox="0 0 28 28" fill="none" xmlns="http://www.w3.org/2000/svg">
<path d="M14 7C14.9283 7 15.8185 7.36875 16.4749 8.02513C17.1313 8.6815 17.5 9.57174 17.5 10.5C17.5 11.4283 17.1313 12.3185 16.4749 12.9749C15.8185 13.6313 14.9283 14 14 14C13.0717 14 12.1815 13.6313 11.5251 12.9749C10.8687 12.3185 10.5 11.4283 10.5 10.5C10.5 9.57174 10.8687 8.6815 11.5251 8.02513C12.1815 7.36875 13.0717 7 14 7ZM14 15.75C17.8675 15.75 21 17.3162 21 19.25V21H7V19.25C7 17.3162 10.1325 15.75 14 15.75Z" fill="white"/>
<circle cx="14" cy="14.5" r="12.9318" stroke="white" stroke-width="1.13636"/>
</svg>
