<svg width="54" height="54" viewBox="0 0 54 54" fill="none" xmlns="http://www.w3.org/2000/svg">
<path d="M49.5 38.25H4.5C3.90326 38.25 3.33097 38.4871 2.90901 38.909C2.48705 39.331 2.25 39.9033 2.25 40.5C2.25 41.0967 2.48705 41.669 2.90901 42.091C3.33097 42.5129 3.90326 42.75 4.5 42.75H49.5C50.0967 42.75 50.669 42.5129 51.091 42.091C51.5129 41.669 51.75 41.0967 51.75 40.5C51.75 39.9033 51.5129 39.331 51.091 38.909C50.669 38.4871 50.0967 38.25 49.5 38.25ZM49.5 47.25H4.5C3.90326 47.25 3.33097 47.4871 2.90901 47.909C2.48705 48.331 2.25 48.9033 2.25 49.5C2.25 50.0967 2.48705 50.669 2.90901 51.091C3.33097 51.5129 3.90326 51.75 4.5 51.75H49.5C50.0967 51.75 50.669 51.5129 51.091 51.091C51.5129 50.669 51.75 50.0967 51.75 49.5C51.75 48.9033 51.5129 48.331 51.091 47.909C50.669 47.4871 50.0967 47.25 49.5 47.25ZM13.5 15.75C13.055 15.75 12.62 15.882 12.25 16.1292C11.88 16.3764 11.5916 16.7278 11.4213 17.139C11.251 17.5501 11.2064 18.0025 11.2932 18.439C11.38 18.8754 11.5943 19.2763 11.909 19.591C12.2237 19.9057 12.6246 20.12 13.061 20.2068C13.4975 20.2936 13.9499 20.249 14.361 20.0787C14.7722 19.9084 15.1236 19.62 15.3708 19.25C15.618 18.88 15.75 18.445 15.75 18C15.75 17.4033 15.5129 16.831 15.091 16.409C14.669 15.9871 14.0967 15.75 13.5 15.75ZM45 2.25H9C7.20979 2.25 5.4929 2.96116 4.22703 4.22703C2.96116 5.4929 2.25 7.20979 2.25 9V27C2.25 28.7902 2.96116 30.5071 4.22703 31.773C5.4929 33.0388 7.20979 33.75 9 33.75H45C46.7902 33.75 48.5071 33.0388 49.773 31.773C51.0388 30.5071 51.75 28.7902 51.75 27V9C51.75 7.20979 51.0388 5.4929 49.773 4.22703C48.5071 2.96116 46.7902 2.25 45 2.25ZM47.25 27C47.25 27.5967 47.0129 28.169 46.591 28.591C46.169 29.0129 45.5967 29.25 45 29.25H9C8.40326 29.25 7.83097 29.0129 7.40901 28.591C6.98705 28.169 6.75 27.5967 6.75 27V9C6.75 8.40326 6.98705 7.83097 7.40901 7.40901C7.83097 6.98705 8.40326 6.75 9 6.75H45C45.5967 6.75 46.169 6.98705 46.591 7.40901C47.0129 7.83097 47.25 8.40326 47.25 9V27ZM27 11.25C25.665 11.25 24.3599 11.6459 23.2499 12.3876C22.1399 13.1293 21.2747 14.1835 20.7638 15.4169C20.2529 16.6503 20.1192 18.0075 20.3797 19.3169C20.6401 20.6262 21.283 21.829 22.227 22.773C23.171 23.717 24.3738 24.3599 25.6831 24.6203C26.9925 24.8808 28.3497 24.7471 29.5831 24.2362C30.8165 23.7253 31.8707 22.8601 32.6124 21.7501C33.3541 20.6401 33.75 19.335 33.75 18C33.75 16.2098 33.0388 14.4929 31.773 13.227C30.5071 11.9612 28.7902 11.25 27 11.25ZM27 20.25C26.555 20.25 26.12 20.118 25.75 19.8708C25.38 19.6236 25.0916 19.2722 24.9213 18.861C24.751 18.4499 24.7064 17.9975 24.7932 17.561C24.88 17.1246 25.0943 16.7237 25.409 16.409C25.7237 16.0943 26.1246 15.88 26.561 15.7932C26.9975 15.7064 27.4499 15.751 27.861 15.9213C28.2722 16.0916 28.6236 16.38 28.8708 16.75C29.118 17.12 29.25 17.555 29.25 18C29.25 18.5967 29.0129 19.169 28.591 19.591C28.169 20.0129 27.5967 20.25 27 20.25ZM40.5 15.75C40.055 15.75 39.62 15.882 39.25 16.1292C38.88 16.3764 38.5916 16.7278 38.4213 17.139C38.251 17.5501 38.2064 18.0025 38.2932 18.439C38.3801 18.8754 38.5943 19.2763 38.909 19.591C39.2237 19.9057 39.6246 20.12 40.061 20.2068C40.4975 20.2936 40.9499 20.249 41.361 20.0787C41.7722 19.9084 42.1236 19.62 42.3708 19.25C42.618 18.88 42.75 18.445 42.75 18C42.75 17.4033 42.5129 16.831 42.091 16.409C41.669 15.9871 41.0967 15.75 40.5 15.75Z" fill="#3D52A0"/>
</svg>
