<svg width="39" height="31" viewBox="0 0 39 31" fill="none" xmlns="http://www.w3.org/2000/svg">
<path d="M34.8737 27.4583H38.2904V30.875H0.707031V27.4583H4.1237V1.83333C4.1237 1.38026 4.30368 0.945734 4.62406 0.625359C4.94443 0.304985 5.37895 0.125 5.83203 0.125H22.9154C23.3684 0.125 23.803 0.304985 24.1233 0.625359C24.4437 0.945734 24.6237 1.38026 24.6237 1.83333V27.4583H28.0404V10.375H33.1654C33.6184 10.375 34.053 10.555 34.3733 10.8754C34.6937 11.1957 34.8737 11.6303 34.8737 12.0833V27.4583ZM10.957 13.7917V17.2083H17.7904V13.7917H10.957ZM10.957 6.95833V10.375H17.7904V6.95833H10.957Z" fill="#002855"/>
</svg>
