<svg width="14" height="17" viewBox="0 0 14 17" fill="none" xmlns="http://www.w3.org/2000/svg">
<path d="M12.0128 2.51043C9.35652 -0.102437 5.04992 -0.102437 2.39368 2.51043C1.76303 3.12657 1.2619 3.86256 0.919758 4.67514C0.577618 5.48772 0.401367 6.3605 0.401367 7.24217C0.401367 8.12385 0.577618 8.99663 0.919758 9.80921C1.2619 10.6218 1.76303 11.3578 2.39368 11.9739L7.2028 16.7056L12.0128 11.9739C12.6434 11.3578 13.1445 10.6218 13.4867 9.80921C13.8288 8.99663 14.0051 8.12385 14.0051 7.24217C14.0051 6.3605 13.8288 5.48772 13.4867 4.67514C13.1445 3.86256 12.6434 3.12657 12.0128 2.51043ZM7.2028 9.47838C6.63482 9.47838 6.1017 9.25731 5.69952 8.85598C5.30139 8.45699 5.07779 7.91636 5.07779 7.35271C5.07779 6.78905 5.30139 6.24842 5.69952 5.84943C6.10085 5.44811 6.63482 5.22704 7.2028 5.22704C7.77078 5.22704 8.30474 5.44811 8.70607 5.84943C9.10421 6.24842 9.32781 6.78905 9.32781 7.35271C9.32781 7.91636 9.10421 8.45699 8.70607 8.85598C8.30474 9.25731 7.77078 9.47838 7.2028 9.47838Z" fill="#3D52A0"/>
</svg>
