<svg width="70" height="70" viewBox="0 0 70 70" fill="none" xmlns="http://www.w3.org/2000/svg">
<path d="M8.75 55.4167H61.25V61.25H8.75V55.4167ZM17.5 46.6667C20.7083 46.6667 23.3333 44.0417 23.3333 40.8333C23.3333 39.375 22.75 37.9167 21.875 37.0417L25.6667 29.1667H26.25C27.7083 29.1667 29.1667 28.5833 30.0417 27.7083L37.9167 31.7917V32.0833C37.9167 35.2917 40.5417 37.9167 43.75 37.9167C46.9583 37.9167 49.5833 35.2917 49.5833 32.0833C49.5833 30.625 49 29.4583 48.125 28.2917L51.9167 20.4167H52.5C55.7083 20.4167 58.3333 17.7917 58.3333 14.5833C58.3333 11.375 55.7083 8.75 52.5 8.75C49.2917 8.75 46.6667 11.375 46.6667 14.5833C46.6667 16.0417 47.25 17.5 48.125 18.375L44.3333 26.25H43.75C42.2917 26.25 40.8333 26.8333 39.9583 27.7083L32.0833 23.9167V23.3333C32.0833 20.125 29.4583 17.5 26.25 17.5C23.0417 17.5 20.4167 20.125 20.4167 23.3333C20.4167 24.7917 21 26.25 21.875 27.125L18.0833 35H17.5C14.2917 35 11.6667 37.625 11.6667 40.8333C11.6667 44.0417 14.2917 46.6667 17.5 46.6667Z" fill="#3D52A0"/>
</svg>
